<svg xmlns="http://www.w3.org/2000/svg" viewBox="0 0 1735.34 1737.71"><g fill="#dc8200"><path d="M183.62 901.4l-5 .14a12.62 12.62 0 0 0-2.2.28 29.22 29.22 0 0 0-3.16 1 31 31 0 0 0-4.17 2 27.35 27.35 0 0 0-4.33 2.8 46.27 46.27 0 0 0-7.11 7.82 39.74 39.74 0 0 0-2.83 4.53l-.1.15c-.5.88-.9 1.8-1.32 2.7l-.52 1.1a3.08 3.08 0 0 0 .13 2.75 38.43 38.43 0 0 0-1.92 3.33l-.1.22-2.14 3.92-1 1.43s-.82 1.17-1.2 1.77l-2.92 4.1-1.72 2.1-1.32 1.58q-1.56 1.93-3.07 3.92l-3.16 4-2.9 3.65-6.17 7.74-2.73 3.44-4.13 5.1a88.77 88.77 0 0 1-7.78 7.76l.2-.14-4.3 4-2.8 2.66-3.65 3-1.6 1.3-2.27 1.82-6.92 5.1-1.3.93-4.32 3-3.68 2.54-4.63 3.4-3.07 2.28-4.8 3.38-2.9 2-4 2.74-1.77 1.14-2.15 1.38-7.84 5-5.64 3.2-2.8 1.57-2.68 1.46-5.06 2.65-.62.32-.2.1-.2.1.4-.2-2.06 1 .3-.14-4.26 2.3-3.75 2.4-2.3 1.7-1.15.87a33.29 33.29 0 0 0-3.93 3.43 28.1 28.1 0 0 0-7.82 17.67l-.2 4.25v1.16l-.17 2.32-.3 4.68c-.06 2 .07 4 .2 5.92l.06 1v.8l-.07 4.48.14 6.32.12 3.92v-.4l.36 9.68a69.89 69.89 0 0 0 .92 7l.38 2.4.37 2.67.26 1.93.63 4.1.12.74 1.74 9.7 1.22 5.07q.4 1.35.8 2.7l.53 1.74a22.36 22.36 0 0 0 1.57 4.14 24.43 24.43 0 0 0 2.19 3.26l.62.82a8.11 8.11 0 0 0 3.57 3 8 8 0 0 0 2.2.53h.43a5.27 5.27 0 0 0 3.13-1.09 8.82 8.82 0 0 0 1.2-1.09 4.91 4.91 0 0 0 1-1.68 8.92 8.92 0 0 0 .46-1.62 9.46 9.46 0 0 0 .11-2v-.3a11.37 11.37 0 0 0-.23-2l-.55-2.37-.4-1.73-.34-1.38a31.17 31.17 0 0 1-.66-3.08l-.5-4.57c0-.64-.1-1.3-.14-1.93l-.2-2.9-.2-3.18-.12-1.92-.13-3.1-.06-1.75-.23-9.3.27-6.6.82-7.27.43-4 .32-3.1.52-3.85.36-.82h.2l.1.05c0 .07 0 .15.07.23l.34 1.78a19.24 19.24 0 0 1 .21 1.82c0 .34 0 .68-.07 1s-.07 1-.07 1.43l.06 2v1.08a99.86 99.86 0 0 0 .49 11.21l.1 1 .53 4.63.42 3.54q.16 1.53.36 3.06l.3 2.36.54 4.14 1.15 6.15a78.18 78.18 0 0 1 1.26 7.92l.07.62c0 .54.1 1.07.18 1.6a22.82 22.82 0 0 0 .77 3.06 34.44 34.44 0 0 0 1.39 3.5l.18.38 1.8 3.78a18.88 18.88 0 0 0 2.47 3.8 10.44 10.44 0 0 0 3.37 2.59 5.14 5.14 0 0 0 4.23 0 5.72 5.72 0 0 0 2.73-3.32c.95-2.58.8-5.5-.52-9.15-.24-.66-.53-1.3-.8-1.92l-.42-.93a20.65 20.65 0 0 1-.85-2.4l-1-3.58-1-4.28-.32-1.72-.75-3.92-.28-1.26-.62-3.14a42.38 42.38 0 0 1-.38-5.53v-.7l-.13-3.82-.1-2.84c0-1.23.1-2.48.2-3.7 0-.5.07-1 .1-1.47l.5-6.33.1-.92.2-2a80.1 80.1 0 0 1 .23-2.67 37.58 37.58 0 0 1 .89-5.34l.18-.7.2-.8.06-.26.23-.9.7-2.42.06-.18.54-1.53v.46c0 1.84-.17 3.7-.32 5.5l-.24 3.43a157.32 157.32 0 0 0-.23 9.83v.84l.16 5.36s.32 3.2.54 4.8l.24 1.88.44 3.18a38.84 38.84 0 0 0 .93 4.06l1 3.4v.16l.06.16a66.58 66.58 0 0 0 1.84 5.67 29.9 29.9 0 0 0 1 2.34l.32.78.16.38a19.8 19.8 0 0 0 1.66 3.36 8.54 8.54 0 0 0 .56.78 13.51 13.51 0 0 1 .44.61l.6.9.33.5a19.67 19.67 0 0 0 2 2.53c.73.8 1.5 1.5 2.36 2.26l.7.67a9.56 9.56 0 0 0 1.16 1 9.31 9.31 0 0 0 1.43.86 6.89 6.89 0 0 0 1.48.47l.37.1a4.91 4.91 0 0 0 1.22.15 6.37 6.37 0 0 0 3.12-.87l.33-.2 1.2-.72a5.23 5.23 0 0 0 1.85-2.36 8 8 0 0 0 .51-4 14.56 14.56 0 0 0-1.78-4.9l-.53-1c-.28-.58-.52-1.2-.75-1.8l-.24-.6a24.62 24.62 0 0 1-.7-2l-.58-2.9-.68-4a39.56 39.56 0 0 1-.41-4.49c0-.66-.08-1.32-.12-2s-.1-1.47-.13-2.2l.13-5.3v-1.38c.07-2.26.36-4.54.64-6.75l.05-.4.6-4 .47-3.13a30.38 30.38 0 0 1 .74-3.51l.38-1.56.45-1.8.33-1.24 1.17-3.93a47.38 47.38 0 0 1 1.91-5 82.45 82.45 0 0 1 3.93-7.88 67.56 67.56 0 0 1 3.91-5.57l1.36-1.8c.7-1 1.5-1.86 2.26-2.75l.73-.85 2.9-3.27 2.74-2.4 1.32-1.13 4.4-3.6 1.52-1.17 3.06-2.32c1.3-1 2.73-1.92 4.5-3l.9-.54 1.45-.85.55-.32 3.7-2 .84-.4 3.55-1.68 8.65-4.3 4.28-2.3s3-1.54 4.4-2.37l8.56-5.12 2.84-1.77 5.6-3.55 2-1.3 2.27-1.46 4-2.86 2.2-1.75 5.85-4.43 3.64-3.12.62-.56 3-2.78a176.78 176.78 0 0 0 5.6-5.65 5.09 5.09 0 0 0 1-.85l.77-.8 6.33-7 .73-.94 1.2-1.3s1-1.24 1.54-1.87l.6-.74a3.09 3.09 0 0 0 .66-2.2l.3-.47.28-.47a314.18 314.18 0 0 0 5.41-9.21 44.25 44.25 0 0 0 3.49-8.16 32.77 32.77 0 0 0 1.18-4.88l.45-3.76.1-.83.25-4.73q0-.95.06-1.9l.07-2.74a34 34 0 0 0-.41-5l-.56-3.24-.25-1.4a33.89 33.89 0 0 0-1.3-5.13l-1.72-4.18a26.73 26.73 0 0 0-2.75-5.1l-1-1.3a23.62 23.62 0 0 1-1.48-1.94l-.25-.48-.44-.83a8.07 8.07 0 0 0-1-1.56 10 10 0 0 0-1.36-1.26 18 18 0 0 0-1.82-1.18l-.24-.14a24.06 24.06 0 0 0-2.4-1.29 26.5 26.5 0 0 0-1.23-.51l-.8-.33-.5-.22-1.42-.6a14.77 14.77 0 0 0-5.07-.67zM34.74 1041.28l-.44.2.44-.2z"/><path d="M693.14 1103.18h-.33l-5.24.33-5.7.58-9.7 1.3-.74.1-3.66.56-1.42.22-2.34.44-.73.13-1.7.33-1.54.34-3.48.82-.9.26-7.06 2.2a91.67 91.67 0 0 0-13.72 6.94l-2.84 1.66-5.67 3.26-8.57 4.47-4.64 2.45a26.39 26.39 0 0 0-9.09 8.19l-.27.4-1.66 2.54a25.59 25.59 0 0 0-1.72 3.58l-.77 2.06a16.75 16.75 0 0 0-.85 4.93 37.58 37.58 0 0 0 .2 4.63v1.3l.27 3.7a15.43 15.43 0 0 1-.07 1.61 47.28 47.28 0 0 1-.39 2.42l-1 3.5-1 3.4-1.44 5.64-.54 2.2-1.28 4.5-.77 2.17a29.91 29.91 0 0 0-.86 3 28.92 28.92 0 0 0-.71 4.75l-.07.9-.3 3.94-.3 7.14a3.29 3.29 0 0 0-2.3 1.25 3 3 0 0 0-.68 2.28l.1.74.72 5.72.5 5.34.08.88a78 78 0 0 0 2.54 13.41l1.83 5.75 1.18 3.66.67 2.13 2 6.7 1.44 5 1.58 4.85.33 1 1.2 3.36s.7 2 1 2.94l4.6 12.8c1.5 3.87 3.25 8 5.36 12.47l2.9 6.42q1.23 2.77 2.5 5.53c2 4.4 4.22 8.77 6.54 13 1.9 3.45 4.17 7.08 7.16 11.45l2.9 4.1 1 1.43.5.7q1.65 2.33 3.33 4.62l4.06 5.5c1.3 1.7 2.64 3.36 4.13 5.08 1.12 1.3 2.3 2.58 3.46 3.83l.75.82 3 3.37 1.5 1.68c3.53 3.92 6.6 7.07 9.67 9.9 2.9 2.68 5.7 5.55 8.4 8.33l.56.58c.87.9 1.76 1.75 2.65 2.62l2 2c1.32 1.32 2.9 2.87 4.55 4.4l3.25 3 6.64 6.06c3 2.6 5.92 5.3 8.78 7.9l1.37 1.25c1.7 1.56 3.5 3.1 5.24 4.56l1.68 1.44 3.63 3.08c2.9 2.4 5.9 4.74 8.8 7l1.77 1.38c4.2 3.3 7.6 6.1 10.66 8.83l.64.57c2.92 2.6 5.94 5.3 8.73 8.16 1.3 1.46 2.58 3.08 3.92 4.9l3.87 5.16c1.33 1.7 3 3.5 4.44 5.17s2.83 3.18 4.16 4.84 2.42 3.22 3.55 4.83l.27.4 1 1.4 2.5 3.58c1.6 2.4 3 5 4.34 7.44.52 1 1 1.9 1.56 2.85l.7 1.25.6 1.05c1.17 2.25 2.34 4.65 3.68 7.55l.38.8c1 2.16 2 4.4 2.94 6.64a65.7 65.7 0 0 1 2.68 8.1l.4 1.54 1.48 5.75.3 1.4c.57 2.6 1.17 5.3 1.53 8 .5 3.72.92 7.45 1.22 10.27l.1.9a52.87 52.87 0 0 0-.14 6.32c0 .35 0 .7.07 1 0 .7.1 1.4.1 2.1v3.33a29.51 29.51 0 0 1-.45 3l-.07.37c-.2 1.1-.4 2.3-.58 3.87 0 .35-.08.7-.12 1.06a18.61 18.61 0 0 1-.3 2.21v.2a9.88 9.88 0 0 0-.22 1.23c0 .23 0 .47-.05.7s0 .7-.1 1.06c-.08.53-.18 1-.3 1.55a9.87 9.87 0 0 0-.16 1.07v.45a24.08 24.08 0 0 1-.64 3 20.67 20.67 0 0 0-.34 1.71l-.17.9c-.15.78-.35 1.52-.6 2.4-.2.54-.4 1.06-.6 1.6a25.46 25.46 0 0 0-1.15 3.49 11.56 11.56 0 0 0-.21 1.52c0 .36 0 .7-.1 1.07a18.61 18.61 0 0 1-.65 2.71 63.5 63.5 0 0 1-2.42 6.25 43 43 0 0 1-2.71 4.89l-.1.15a79.96 79.96 0 0 0-1.49 2.38c-.37.6-.72 1.24-1.06 1.87l-.55 1c-1 1.82-1.88 3.33-2.8 4.83-.64 1-1.3 2-2 2.9l-.84 1.25c-.47.72-1 1.46-1.5 2.17l-1.73 2.25c-1.2 1.55-2.44 3.15-3.6 4.78l-.16.23a34.53 34.53 0 0 1-2.07 2.78c-.5.6-1 1.17-1.5 1.74l-.82.92c-1.6 1.82-3.32 3.76-5.2 5.58l-.63.64-1.18 1.15-.13.12-.15.14-.26.24.1-.07c-.47.4-.92.84-1.36 1.27l-.07.06-.24.22-.46.42a83 83 0 0 1-6.9 5.52 46.09 46.09 0 0 1-4.16 2.64c-.66.37-1.3.78-2 1.18s-1.3.8-2 1.18a71.53 71.53 0 0 1-7 3l-2.6 1c-1.55.63-3.15 1.28-4.77 1.8l-5.65 1.7-2.52.74c-2.4.7-4.86 1.36-7.26 1.94l-6.35 1.3-1.6.32c-1.3.26-2.7.5-4.44.72-.77.1-1.53.24-2.28.36l-2.38.38c-1.4.2-2.82.33-4.5.5-1.43.14-2.87.38-4.26.6l-.5.08-1.32.22-3 .48c-.63.1-1.26.16-1.9.24a60.45 60.45 0 0 0-2.87.38c-3.3.53-6.56 1.35-9.74 2.15l-3.84.94-8.75 1.83c-3.2.6-6.38 1.46-9.64 2.34a62.9 62.9 0 0 0-8 2.71 17.72 17.72 0 0 0-4.48 2.64c-1.14 1-2.34 1.85-3.47 2.7a18.88 18.88 0 0 0-3.59 3.56 21.73 21.73 0 0 0-2.86 4.45 15.81 15.81 0 0 0-1.37 4.92 22.52 22.52 0 0 0 .13 5.46 13.1 13.1 0 0 0 .65 2.69 10.23 10.23 0 0 0 1.28 2.27l.26.38c.3.4.57.8.82 1.24q.24.4.45.8c.2.37.4.75.63 1.1a14.7 14.7 0 0 0 2.74 2.94l.4.35c.83.75 1.76 1.52 2.93 2.4a43.49 43.49 0 0 0 4.51 3c1.23.7 2.5 1.3 3.9 2 2.55 1.2 5.37 2.33 8.37 3.4l2.26.82c2.3.82 4.65 1.68 7 2.35 2.87.8 5.47 1.5 8.13 2 1.5.3 3 .5 4.5.7 1.26.17 2.56.34 3.83.57 1.44.26 2.9.6 4.3.92 1.63.38 3.3.78 5 1 3 .48 6 .67 9 .86h.3c2.9.18 5.83.63 8.65 1.07l.85.13c1.43.22 2.86.4 4.3.6 1.65.2 3.35.42 5 .7l9.1 1.43c1.5.22 3 .5 4.47.76l4.76.8c3.1.45 6.3.84 9.3 1.2 1.93.23 3.9.4 5.8.55l1.35.1 2.48.2 4.7.38 2.53.17 12.7.78h-.3c3.52.18 7 .2 9.7.22h.16c3.08 0 6.07-.22 9.38-.5l7.63-.66 2.28-.2 4.57-.4h.38l1.22-.1c1.16-.1 2.35-.2 3.53-.35l1-.13a83.75 83.75 0 0 0 13.13-2.51 63.15 63.15 0 0 0 7.17-2.48 28.12 28.12 0 0 0 3.5-1.78l.66-.4c.8-.5 1.64-1 2.5-1.5l.23-.12.16-.1a25.78 25.78 0 0 0 3.5-2.06l.2-.15a77.55 77.55 0 0 0 2.55-1.93l.5-.4c.94-.75 1.92-1.53 2.8-2.37l1.5-1.44 1-1 .26-.24a13.51 13.51 0 0 0 1.44-1.39 8.78 8.78 0 0 0 1.56-2.56l.12-.3a13.12 13.12 0 0 1 .7-1.53l1.25-2.2a20.35 20.35 0 0 0 1.17-2.56c.13-.34.27-.67.4-1 .33-.56.58-1 .8-1.5a21.76 21.76 0 0 1 1.26-2.21c.32-.52.64-1 .93-1.57a36.33 36.33 0 0 0 1.62-3.55l.47-1.13c1-2.3 1.8-4.73 2.57-7.06l.37-1.12c.34-1 .75-2.1 1.22-3.2.2-.5.4-1 .63-1.5.35-.83.7-1.66 1-2.5l.52-1.3 1.14-2.88c.32-.82.58-1.68.83-2.5l.38-1.23c.3-.8.64-1.6 1-2.4a25.4 25.4 0 0 0 1-2.62c.28-.88.7-2 1-3l.6-1.78.65-1.8c.78-2.12 1.6-4.32 2.25-6.54l1.1-3.6 1.35-4.52c.84-2.9 1.55-5.9 2.23-8.8l.13-.54.9-3.73 1.34-5.58 1-4.67.95-4.34c.33-1.44.6-2.93.8-4.2s.46-2.27.72-3.37l.27-1.18.84-4c.3-1.56.63-3.1 1-4.65.42-1.84.8-3.72 1.14-5.54l.63-3.16 1.7-7.82 2-9.53 1.53-8.47c.48-2.56 1.07-5.15 1.63-7.65l.17-.76c.42-1.86.92-3.74 1.4-5.56l.48-1.82c.54-2 1.18-4.16 2-6.45.65-1.82 1.17-3.46 1.6-5 .06-.2.1-.4.16-.58a24.94 24.94 0 0 1-3.89-16.6l.06-.27c-.62-3.54-1.72-7.06-2.6-10.48l-2.35-9.3q-2-8-4.26-16a96.78 96.78 0 0 1-12.63-14 219.82 219.82 0 0 1-12.24-19.36c-5.44-9.64-10.5-19.4-15.1-29.5-4.47-9.78-8-20-11.45-30.17a25.22 25.22 0 0 1-2-13.14q.8-3.13 1.6-6.3c.2-.5.43-1 .67-1.52l-.62-2c-.55-1.72-1.2-3.44-1.83-5.1l-.43-1.16c-.82-2.18-1.6-4.42-2.4-6.86a163.72 163.72 0 0 1-1.73-5.57l-1.2-4.08-.64-2.1c-1-3.26-1.73-6.64-2.46-9.9l-1.08-4.7c-.88-3.7-2.08-7.37-3.24-10.94l-.22-.7c-.8-2.4-1.58-4.58-2.43-6.63s-1.77-3.86-2.7-5.7l-.46-.9c-1.65-3.27-3.53-6.47-5.35-9.57l-1.46-2.5c-.46-.83-.84-1.4-1.27-2.1l-1.07-1.75c-.7-1.2-1.4-2.46-2-3.72-1-2-1.88-3.77-3-5.5-.52-.83-1.08-1.64-1.63-2.45s-1.22-1.76-1.78-2.67-.94-1.7-1.37-2.55c-.3-.6-.6-1.16-.93-1.72l-.56-1-1.14-2.1-1.8-3.4v.14c-.52-1.06-1.07-2.1-1.62-3.13l-1.53-2.9c-.55-1.14-1.07-2.3-1.6-3.45l-.2-.44a22.59 22.59 0 0 1-1.4-4.32 26.55 26.55 0 0 1-.5-5.47 16 16 0 0 1 .52-2.76 54 54 0 0 1 2.39-5.19l.78-1.54q1.14-2.22 2.25-4.47l.8-1.6c1.8-3.66 3.67-7.45 5.25-11.3l2.3-5.7c.85-2.18 1.73-4.57 2.77-7.55.54-1.57 1-3 1.43-4.5a3 3 0 0 0 1.64-2.44l.17-5.17v-1.17c0-1.45 0-3-.07-4.42a96.13 96.13 0 0 0-1.28-10.66 78.54 78.54 0 0 0-2.87-10.45c-.43-1.32-1-2.77-1.72-4.43a141.07 141.07 0 0 0-2.38-5.22c-.83-1.73-1.74-3.4-2.62-5a67.78 67.78 0 0 0-2.63-4.44c-2.15-3.33-3.95-6.1-6.07-8.77l-.37-.48-3-3.7c-1-1.2-2.3-2.67-3.82-4.35-.88-1-1.82-1.9-2.73-2.82l-.86-.86c-.47-.48-1-.93-1.45-1.38l-.56-.52-.6-.56a29.08 29.08 0 0 0-1.29-1.2l-1-.85c-1-.83-1.95-1.7-3-2.5l-2.56-2a41.34 41.34 0 0 0-5.55-3.58 60.09 60.09 0 0 0-6.92-3.27 64.27 64.27 0 0 0-10.31-2.9c-1.66-.36-3.36-.67-5-1l-.5-.1-.45-.08c-1.37-.25-2.8-.5-4.2-.68l-10.63-1.26a138.43 138.43 0 0 0-15.61-1 101.16 101.16 0 0 0-5.55.15z"/><path d="M750.04 1636.3zm63.46-300.04a3.32 3.32 0 0 0-1.64 4.3l2.9 7.58 2.57 7.7 2.56 7.2 2.43 7.33 2.4 8.08 1.34 4.68 1.48 4.94.68 2.3v-.08l2.9 8.57a80.25 80.25 0 0 0 3.5 8.09c1.58 3.08 3.7 5.84 5.54 8.77a47.47 47.47 0 0 0 5.57 7.07c1.34 1.46 2.76 2.85 4.07 4.35l1.94 2.22c.83.93 1.7 1.8 2.6 2.64l-.08-.08 1.68 1.6 1.57 1.52.3.27-.07-.06c1 1 2 2.1 3 3.17s2.06 2.08 3.08 3.13a22 22 0 0 1 2.61 3.24c.4.6.8 1.22 1.25 1.8s1 1.2 1.52 1.8c1 1.1 1.83 2.3 2.83 3.38s1.82 2 2.66 3.06l2.57 3.16c.85 1.06 1.52 2 2.27 3 1 1.32 1.92 2.7 2.9 4 .73 1 1.55 1.94 2.24 3 .83 1.5 1.46 3.1 2.15 4.66a46.14 46.14 0 0 1 1.79 4.52 55.69 55.69 0 0 1 1.52 6.89c.4 2.64.7 5.3 1 8s.77 5.43 1.15 8.14a77.81 77.81 0 0 1 .81 8v4.7c0 1.88-.2 3.75-.3 5.63s-.06 3.8-.2 5.68a30.82 30.82 0 0 1-.83 5l-1 3.64c-.37 1.44-.65 2.9-1 4.36s-.82 3.1-1.2 4.67c-.35 1.36-.86 2.65-1.32 4s-1 2.85-1.54 4.26c-.64 1.66-1.4 3.28-2 5-.66 2-1 4-1.52 6-.4 1.4-.87 2.8-1.27 4.2l-1.3 4.62c-.74 2.7-1.7 5.3-2.58 8-.47 1.4-1 2.8-1.52 4.18s-1 2.77-1.62 4.1a61.94 61.94 0 0 0-1.82 4.4c-.5 1.32-.9 2.65-1.36 4s-.9 2.6-1.44 3.86l-1.7 4.28c-.53 1.44-1 2.9-1.46 4.34-.28.87-.54 1.74-.75 2.64a12.86 12.86 0 0 0-.33 1.75c-.1 1.15-.3 2.26-.5 3.4-.24 1.47-.46 3-.75 4.4-.63 3.2-1.4 6.35-1.78 9.58a34.16 34.16 0 0 1-.54 3.63c-.26 1-.53 2-.73 3a60.38 60.38 0 0 0-.5 2.94l-.38 2.5c-.16 1-.38 2-.5 3a60.74 60.74 0 0 0-.27 3 21.71 21.71 0 0 1-.45 3.09 23.37 23.37 0 0 0-.46 2.76 34.23 34.23 0 0 0 0 3.79 3.09 3.09 0 0 0 1.29 2.13 3.24 3.24 0 0 0 4.54-.69l.4-.72a3.36 3.36 0 0 0 .19-1.69v-.17a24.31 24.31 0 0 1 .57-4.81 46.47 46.47 0 0 0 .62-5.27c.16-1.73.58-3.4.82-5.13s.45-3.13.8-4.67c.3-1.1.6-2.22.8-3.35s.3-2.38.46-3.57c.32-2.34.83-4.65 1.3-7 .43-2.1.8-4.23 1.15-6.36.13-.8.32-1.63.4-2.45a14.36 14.36 0 0 1 .31-2.07c.35-1.24.8-2.46 1.2-3.68q.73-2.27 1.63-4.46c.52-1.3 1.12-2.54 1.57-3.86l1.35-4c.48-1.4 1-2.8 1.58-4.18s1.3-2.9 1.85-4.37l3-8.27c1-2.94 1.84-5.9 2.68-8.9l1.45-4.88c.52-1.62.9-3.5 1.3-5.28a28.34 28.34 0 0 1 1.45-4c.56-1.28 1-2.6 1.52-3.92s.86-2.42 1.3-3.63c.2-.58.44-1.15.62-1.74a33 33 0 0 0 .56-2.1l.33-1.34.8-3c.36-1.4.63-2.8 1-4.2a57.38 57.38 0 0 0 2.08-8.94c.16-1.6.18-3.22.22-4.83s.13-3.28.2-4.92a93.77 93.77 0 0 0 0-10.06c-.16-3.17-.68-6.3-1.15-9.45-.23-1.57-.5-3.14-.68-4.72l-.5-4.73a77.62 77.62 0 0 0-1.57-9.08 41.85 41.85 0 0 0-1.43-4.79c-.54-1.42-1.17-2.8-1.77-4.18a34.72 34.72 0 0 0-2.37-4.77c-.65-1.06-1.47-2-2.2-3-1.65-2.22-3.15-4.55-4.88-6.72l-2.52-3.08c-.84-1.03-1.7-2.1-2.6-3.1a109.61 109.61 0 0 1-2.82-3.27c-.92-1.1-2-2.27-2.82-3.5a30.61 30.61 0 0 0-2.59-3.49c-1-1.06-2-2-3-3.07-1.55-1.58-3-3.24-4.6-4.76l.07.07-.18-.17.07.06-2.58-2.46a43.73 43.73 0 0 0-1.2-1.15c-1.42-1.4-2.67-3-4-4.5s-3-3.2-4.5-4.83a37.44 37.44 0 0 1-4-5.19c-1.26-2-2.6-3.9-3.84-5.88a57.56 57.56 0 0 1-4-8.47c-1.2-3.1-2.36-6.26-3.33-9.46l-.36-1.24-1.48-4.92-.54-1.82-1.5-5.24a1.46 1.46 0 0 0 0 .2l-1.33-4.45-2.45-8c-.87-2.66-2-5.45-3-8.2s-1.8-5.6-2.77-8.37-2.1-5.6-3.18-8.4a3.17 3.17 0 0 0-3-1.91 3.25 3.25 0 0 0-1.3.26zm20.86 52.2c.06.22.13.43.2.65-.07-.2-.13-.43-.2-.65zm-6.4 1.06c0 .1 0 .18.07.26 0-.08 0-.17-.07-.26zm25.76 41.9l.22.2-.22-.2zm2.23 2.13l.55.52-.55-.52zm1.18 1.14l.18.17-.18-.17zm.44.42l.16.15-.16-.15zm37.64 106.46c0 .12-.06.23-.08.34 0-.1 0-.22.08-.34zm-6.73.35v.08l-.06.24c0-.1.06-.2.08-.32zm6.58.27l-.06.2.06-.2zm-.23.9v.22c0 .07 0-.15 0-.22zm-30.32 111.37v.67-.67zm-2-223.58l-.53-.5.53.5z"/><path d="M818.92 1380.5a3.27 3.27 0 0 0-1.64 4.29 37.85 37.85 0 0 0 2.82 4.69l2.3 3.58 2.7 4.05 2.82 3.6 3 3.52 2.77 3.47 2.86 3.43c.97 1.13 2 2.17 3.1 3.22l3.35 3.27 3 2.53 6.6 5.42 5.9 5.42q1.62 1.43 3.3 2.8l2.43 2 2.82 2.7 2.9 2.6 2.7 2.42 2.43 2c.78.7 1.6 1.73 2.34 2.65l2.18 2.76 2.36 3.54 2.15 2.94 2.08 4 2.54 4.62c.88 1.53 1.72 3.3 2.55 5a30.76 30.76 0 0 1 1.94 5l.68 2.34.82 2.8 1.23 5.07a53.73 53.73 0 0 1 .71 5.52l.4 5.65.43 5.2c0 4-1.13 8-1.8 12-.33 2-.62 4-.82 6.06a43.08 43.08 0 0 1-.79 6l-1.44 5.94-1.28 5.86c-1.48 5.54-3.8 10.8-5.68 16.2-1.06 3-2.14 6.1-3.36 9.08-.55 1.36-1 2.74-1.47 4.14a52.88 52.88 0 0 0-1.19 5.45l-1.48 7.15a3.13 3.13 0 0 0 .7 2.42 3.27 3.27 0 0 0 2.14 1.19 3.32 3.32 0 0 0 2.43-.7 3.52 3.52 0 0 0 1.19-2.15q.57-2.62 1.1-5.27l1.06-5.34c.38-1.3.8-2.56 1.3-3.8l1.75-4.5c1-2.92 2.05-5.84 3.15-8.74l3.14-8.48a84.79 84.79 0 0 0 2.42-9.14q.8-3.8 1.75-7.6a24.64 24.64 0 0 0 .59-2.68c.1-.7.18-1.4.25-2.1l.38-4.08c.37-3 .9-6 1.5-9a71.75 71.75 0 0 0 .74-4.47 26.53 26.53 0 0 0 .09-5.27l-.4-4.64-.35-4.9a57.25 57.25 0 0 0-.88-6.66c-.46-2.32-1.14-4.6-1.8-6.85l-.62-2.1c-.45-1.56-.86-3.14-1.44-4.65a46.24 46.24 0 0 0-2-4.29c-1.36-2.7-3-5.27-4.3-8-.6-1.2-1.18-2.4-1.85-3.58a25.55 25.55 0 0 0-1.59-2.53c-.46-.63-1-1.22-1.4-1.85-.94-1.3-1.75-2.68-2.67-4-.78-1.08-1.66-2.1-2.5-3.13a28.56 28.56 0 0 0-3.27-3.42l-2.94-2.43c-.94-.82-2-1.8-3-2.7s-2-1.73-2.9-2.6-1.7-1.7-2.62-2.5-1.9-1.53-2.82-2.3c-1.1-.9-2.14-1.86-3.2-2.8s-2-1.77-2.92-2.67c-2-1.87-4.1-3.63-6.23-5.38-2-1.6-4-3.1-5.86-4.82-.9-.86-1.74-1.75-2.62-2.6a41.89 41.89 0 0 1-3-3.35 80.11 80.11 0 0 1-2.84-3.41l-2.78-3.48c-2-2.4-4.08-4.8-5.87-7.4-.87-1.26-1.65-2.6-2.48-3.88l-2.24-3.47-.7-1.12c-.23-.38-.4-.72-.56-1.1a3.32 3.32 0 0 0-3-1.92 3.21 3.21 0 0 0-1.3.28zm4.44 2.06c.08.13.16.27.25.4-.1-.13-.17-.27-.25-.4zm52 63.17l.2.18-.2-.18zm24.33 29.2l.07.25-.07-.25zm.8 52.88c0 .1 0 .22-.08.33 0-.1.05-.22.08-.33zm-9.13 10.85a2.25 2.25 0 0 1 0 .22v-.22z"/><path d="M827.78 1402.95a3.34 3.34 0 0 0-1.17 3c.1 1.9 1.35 3.35 2.42 4.83l2.85 3.6.76.94-2.84-2.25-7.24-5.6a3.25 3.25 0 1 0-3.85 5.24l8.94 6.92 5 4.13 4 3.65 3.27 3.2a2.87 2.87 0 0 0 .14 2.25l1.82 2.88s1.4 1.72 2.13 2.55l1.92 2.16 3.7 4.12 3.47 3.62 2.8 5c3.57 6.5 7 13 11 19.32l2.38 3.66a34.13 34.13 0 0 0 2.48 3.47 3.31 3.31 0 0 0 2.15 1.19 3.08 3.08 0 0 0 1.72-.29c.25.34.5.68.76 1q1 2.13 2.06 4.26l2 4 1.24 2.27a14.89 14.89 0 0 0 1.49 2.41l-.12.05a3.1 3.1 0 0 0-1.69 1.77 11.68 11.68 0 0 0-.47 2.41 18.64 18.64 0 0 0 .11 2.48c.13 1.47.3 2.92.55 4.37s.55 2.65.82 4c.13.64.28 1.28.44 1.92 0 1 0 2 .07 3.08v7.77a2.45 2.45 0 0 0-.54.18 3.29 3.29 0 0 0-1.64 4.29 67.52 67.52 0 0 0 1 2.48 11.56 11.56 0 0 0 .43 1 5.86 5.86 0 0 0 .65 1.12 3.49 3.49 0 0 0 2.34 1.21 3.29 3.29 0 0 0 2.29-.59 3.24 3.24 0 0 0 4.57.48 3.69 3.69 0 0 0 1.34-2.29 11 11 0 0 0 0-2.07 14.86 14.86 0 0 0-.22-1.49 4.19 4.19 0 0 0 .72-1.07 8.33 8.33 0 0 0 .54-2.63c.05-.53.07-1.07.1-1.6v-4.52l.27-3.57c.25-3.4.34-6.8.43-10.2v-5.65c-.1-2-.2-3.87-.37-5.8a28.92 28.92 0 0 0-1.09-5.84 9.56 9.56 0 0 0-.9-2.1c0-.18-.05-.35-.08-.52a16.64 16.64 0 0 0-.37-1.84l-.52-1.93-.88-3.1c-.38-1.3-.77-2.63-1.2-3.92l-.8-2.45v-.08l-1.13-7.1-.5-3.34-.26-1.54a5.92 5.92 0 0 0-1.18-3.08 3.33 3.33 0 0 0-3-1.17 3.22 3.22 0 0 0-2.36 1.7 5.58 5.58 0 0 0-1.27-.7 3.36 3.36 0 0 0-1.93-.13c-.16-.26-.33-.53-.5-.78l-1.64-2.53c-.07-.12-.16-.24-.24-.36a3.64 3.64 0 0 0-.17-2.18 5.77 5.77 0 0 0-1.16-1.77l-.75-1-1.7-2.16c-1.08-1.4-2.2-2.76-3.3-4.13L861 1431l-6-7.53-1.36-2-3.6-5.15-1.65-2.3a22.61 22.61 0 0 0-2.11-2.66 3.48 3.48 0 0 0-2.15-1.18 3.2 3.2 0 0 0-1.7.26 3.92 3.92 0 0 0-1.56 1.4l-2.73-3.08-2.8-3c-.37-.4-.75-.77-1.13-1.15a8.14 8.14 0 0 0-3-2.32 4.12 4.12 0 0 0-1.24-.2 3.07 3.07 0 0 0-2 .7zm55.18 111.78v.64-.64zm9.64 13.5l.13.22a1.59 1.59 0 0 1-.13-.22z"/><path d="M888.27 1534.33a37.88 37.88 0 0 1-.52 5.93l-.8 5c-.3 1-.74 1.84-1.08 2.77a32.67 32.67 0 0 0-1 3.63l-1.1 4.24a41.12 41.12 0 0 0-.69 4.54l-.43 4.3-.57 4.08a27.68 27.68 0 0 0 .3 8.71 15.27 15.27 0 0 0 3.43 6.46l2.1 2.78 1.33 1.5 1.32 1.4a29.75 29.75 0 0 1 2.91 3.62l1.42 2.2 1.16 1.73a59.8 59.8 0 0 1 3.26 6.12l1.53 3.43 1.18 3a26.81 26.81 0 0 1 .86 5.18c0 .23 0 .45-.06.67a11.9 11.9 0 0 1-.79.94 4.91 4.91 0 0 1-.51.39 10.78 10.78 0 0 1-1.72.72l.84-.25-2 .62a3.92 3.92 0 0 0-.49.13 6.85 6.85 0 0 1-.89.14 9.78 9.78 0 0 1-1.71-.24 8.93 8.93 0 0 1-1.43-.49L893 1617a19.26 19.26 0 0 1-2.84-2.15l-2.12-2.37-2.17-2.46a12.29 12.29 0 0 0-3.81-3.06 5.13 5.13 0 0 0-2.51-.36l-.7.05a6.27 6.27 0 0 0-3.63 1.43 9.82 9.82 0 0 0-1.73 2.27 19.65 19.65 0 0 0-1.39 2.6 20.55 20.55 0 0 0-1 5c-.46 3.24-1.37 6.4-1.9 9.6-1.1 6.47-2.35 12.93-3.94 19.3a18.23 18.23 0 0 1-.71 2.28c-.42 1-.88 2-1.35 2.93l-2.83 5.82c-.9 1.96-1.87 3.65-2.8 5.48l-2.56 5.08a29.57 29.57 0 0 1-3.66 4.82 18.57 18.57 0 0 1-2.45 2.25c-1.22.67-2.58 1.23-3.34 2.44a3.36 3.36 0 0 0-.6 2.42 3.26 3.26 0 0 0 5.78 1.52 15.44 15.44 0 0 0 3-1.9 37.4 37.4 0 0 0 3.57-3.66 30.6 30.6 0 0 0 2.74-3.66c1-1.52 1.73-3.18 2.54-4.8l4.2-8.35 2.17-4.43a40.36 40.36 0 0 0 1.89-4.19c.53-1.5.85-3.1 1.23-4.65s.68-3 1-4.5q1-4.33 1.77-8.7c.57-3.1 1-6.2 1.72-9.3.33-1.45.67-2.9.9-4.37.2-1.2.32-2.4.57-3.6a8.92 8.92 0 0 1 .5-1.24c.3-.5.6-1 .94-1.5l.32-.05c.2.15.38.3.56.46.56.57 1.07 1.2 1.6 1.8l1.82 2.08a27.76 27.76 0 0 0 3 3 20.52 20.52 0 0 0 3.69 2.51 13.9 13.9 0 0 0 3.09 1.28 13.54 13.54 0 0 0 5 .53 6 6 0 0 0 .74-.13 9.68 9.68 0 0 0 1.33-.38l1.28-.4a13 13 0 0 0 2.67-1.06 10.7 10.7 0 0 0 1.52-1 10.5 10.5 0 0 0 1.34-1.41 7.46 7.46 0 0 0 1.66-2.59 12.17 12.17 0 0 0 .25-4.81 29 29 0 0 0-2.38-8.66 71.62 71.62 0 0 0-3.94-8.07c-.65-1.1-1.25-2.25-2-3.32a112.19 112.19 0 0 1-1.75-2.69 33.1 33.1 0 0 0-3.81-4.87c-1.1-1.2-2.27-2.37-3.28-3.68-.44-.58-.82-1.2-1.3-1.78a20.27 20.27 0 0 1-1.17-1.54 12.78 12.78 0 0 1-.83-1.8c-.13-.6-.2-1.25-.28-1.88a28.96 28.96 0 0 1-.19-2 79.07 79.07 0 0 1 .89-8.09c.18-1.55.3-3.12.46-4.68a32.66 32.66 0 0 1 .7-3.93l1-3.62v.2a29 29 0 0 1 1.37-3.86 18.27 18.27 0 0 0 1.12-4.61c.2-1.42.45-2.82.68-4.23a40.86 40.86 0 0 0 .29-4.69 3.42 3.42 0 0 0-.7-2.43 3.29 3.29 0 0 0-2.14-1.18h-.35a3.26 3.26 0 0 0-3.27 2.86zm-8.8 78.62h-.07.07zm18.4 5.24h-.13.13zm-46.26 54.64l-.34.36.34-.36z"/><path d="M864.04 1636.86a25.54 25.54 0 0 0-.29 3.71l.06 1.75-.06.52c0 .43-.06.85-.07 1.28l-.3 2.73-.18 1.47c0 .27 0 .54-.06.8s0 .77 0 1.15a4.43 4.43 0 0 0 .11.73 9.63 9.63 0 0 1 .08 1.08l-.1.9c-.07.64-.08 1.28-.1 1.92a11.4 11.4 0 0 1-.28 1.29l-.23 1-.2.6v.05l-.25.77.16-.48-1.34 4.74-1.56 5.4-.34 1.07c-.37 1.1-.86 2.13-1.3 3.2l-1.45 3.5-1.54 3.32-1.08 2.7-1.23 3-1.72 3.76-4.43 9.35a16.64 16.64 0 0 1-.81 1.64l.47-.73-1.28 2-1.76 2.45-2.3 3.36a22.21 22.21 0 0 1-3 3.73l-3.12 3.15a21.83 21.83 0 0 1-2.95 2.09l-5.2 2.93-3.33 1.64-4.24 2a3.18 3.18 0 0 0-1.37 2.13 3.26 3.26 0 0 0 2.64 3.76 3.54 3.54 0 0 0 2.4-.51l.7-.38 3.62-1.68 4.8-2.5a41.57 41.57 0 0 0 6.32-4c1.6-1.3 3-2.83 4.43-4.28a28.6 28.6 0 0 0 3.76-4.85l.25-.4 2.1-3 1.18-1.63c.4-.55.88-1.38 1.3-2.07a7.15 7.15 0 0 0 .63-1.07l.75-1.57 1.5-3.16 3.48-7.37 1.46-3.4 1.3-3.08 1-2.53 1.67-3.7 1.38-3.35c.47-1.1.8-2.1 1.13-3.17l1.75-6 .66-2.34.52-1.93.2-.67.5-1.47.2-.88.18-.8a8 8 0 0 0 .18-1.26v.3-.63a1.48 1.48 0 0 1 0-.21.61.61 0 0 0 0 .14v-.56l.15-1.52a11.72 11.72 0 0 0-.15-3.08v.16a1.15 1.15 0 0 1 0-.26l.27-2.3.28-3.32.16-2.86-.06-1.6c-.06-.53.12-1.12.2-1.7a3.3 3.3 0 0 0-2.64-3.77 3.15 3.15 0 0 0-.53 0 3.26 3.26 0 0 0-3.23 2.68zm5.5 12.86v.1-.12zm11.03-73.65l-.62.93a3.26 3.26 0 0 0-.29 1.59 4.94 4.94 0 0 0-1.4.16h-.14a3.13 3.13 0 0 0-1.84 1.67 3.24 3.24 0 0 0-.13 2.48 54.4 54.4 0 0 0 3.22 6.93l.56 1.13a3.61 3.61 0 0 0-.39.22l-.2-.22a3.22 3.22 0 0 0-1.57-.74 3.15 3.15 0 0 0-2.39.51 3.4 3.4 0 0 0-1.39 2.59h-.23a3.76 3.76 0 0 0-1.79.18 3.31 3.31 0 0 0-2.15 2.55 3.1 3.1 0 0 0-1.8.1 3.27 3.27 0 0 0-2 4.15c.2.48.45.94.7 1.4a8.88 8.88 0 0 0 1.48 1.8 6.67 6.67 0 0 0 2.54 1.47l.4.15a3.42 3.42 0 0 0 1 1.55 14.62 14.62 0 0 0 4.55 2.32 13.46 13.46 0 0 0 2.24.68 4.37 4.37 0 0 0 3-.51l3.9 3.7 2.4 2.43 1.28 1.33a19.33 19.33 0 0 0 2.19 2.15 3.45 3.45 0 0 0 2.69.74 3.28 3.28 0 0 0 2.12 0l.35-.15a3.33 3.33 0 0 0 1.37-.49 3.29 3.29 0 0 0 4.13-.67 3.61 3.61 0 0 0 .59-1 3.43 3.43 0 0 0 1.27-1.62 3.27 3.27 0 0 0 2-4.15l-3.17-7.06-3.57-6.8-1.77-3-1.5-3.1-2.26-4.22-1.78-3.18-.1-.2-.88-1.84a14 14 0 0 0-1.56-2.74 3.2 3.2 0 0 0-1.29-1.1 3.15 3.15 0 0 0-1.44-.32 14.62 14.62 0 0 0-1.72-2.12 3 3 0 0 0-2.11-.8 3.07 3.07 0 0 0-2.48 1.13z"/></g><path d="M465.5 443.18a62.24 62.24 0 0 0-7.82.81c-6.66.93-13.22 2.25-19.8 3.64-5 1.07-10.15 1.87-15.23 2.73l-15.4 2.83-2.3.38c-4 .6-7.9 1.25-11.8 2.06-3.45.72-6.9 1.66-10.37 2.2l.32-.05-7.54 1.3-4.87.5a69.3 69.3 0 0 1-7.48.54c-2.17 0-4.35.15-6.52.25a58.25 58.25 0 0 0-6.85.85c-1.37.1-2.75.1-4.13.2a34.71 34.71 0 0 1-6.28.18 38.06 38.06 0 0 0-4.53.09h-2.46a38.58 38.58 0 0 0-7.23 1.06c-2 .42-4 .9-5.93 1.35a37.16 37.16 0 0 0-5.49 2 73.11 73.11 0 0 1-12.1 3.77 35 35 0 0 0-5.82 1.72c-3 1.2-6.07 2.5-9 3.85a40.76 40.76 0 0 0-11.2 8.12c-1.32 1.3-2.6 2.6-3.9 3.93-1.48 1.5-3.13 2.8-4.7 4.2s-3 2.6-4.33 4.05a31.09 31.09 0 0 0-4.21 5.45 22.11 22.11 0 0 0-1.07 2.5l-1.68 4.17a16.65 16.65 0 0 0 .14 8.75 16.74 16.74 0 0 0 20.73 11.47l3.93-1.7a16.84 16.84 0 0 0 6-6.1c.27-.66.53-1.3.82-1.93 2.28-2.3 4.9-4.27 7.25-6.46 2-1.85 3.78-3.9 5.76-5.76a34.27 34.27 0 0 1 4-2.14 27.39 27.39 0 0 1 4.9-1.64c3.08-.65 6.1-1.42 9.1-2.37s6-2.38 9-3.4c1.22-.4 2.5-.52 3.74-.83l2.3-.58h3.6a32 32 0 0 1 3.25 0c.8 0 1.62.08 2.44.06 2 0 4.08-.28 6.13-.36a50.24 50.24 0 0 0 7.21-.92c4.67-.43 9.4-.17 14.08-.7 2.62-.3 5.25-.47 7.85-.86 3.15-.48 6.27-1.1 9.4-1.62 2.55-.35 5.1-.72 7.63-1.28l5.23-1.16c4-.8 7.9-1.56 11.87-2.18l-2.3.34c8.86-1.36 17.65-3.08 26.48-4.6 7.85-1.34 15.6-3.14 23.43-4.53a142.03 142.03 0 0 1 6.18-.62 62.18 62.18 0 0 1 8.52.23c4.16.26 8.76-2.12 11.6-5 6.488-6.593 6.407-17.196-.18-23.7l-3.46-2.62a17 17 0 0 0-8.64-2.2 117.01 117.01 0 0 0-7.25-.23z" fill="#ffb1e1"/><g fill="#ff9700"><path d="M258.8 313.87l-4.1.18h-.1a25.33 25.33 0 0 0-7 .84l-.42.13a50.39 50.39 0 0 0-7.25 2.71c-.65.33-1.32.6-2 .9l-2.18 1a27.3 27.3 0 0 0-4.8 3.23l-5.4 4.1-1.82 1.44-3.45 2.88-.67.64-1.35 1.27a29.13 29.13 0 0 0-2.55 2.54l.1-.08-4.08 4.7-1.08 1.43-1.4 1.85-1.66 1.92-.53.7-1.66 1.75-.67.67-.4.4-1.32 1.4-3.26 3.6-.8 1-.86 1.1-1 1.16.36-.4-.44.5-.3.35-.27.3a32.4 32.4 0 0 1-2.61 2.38l-1.23 1.07-4.17 3.37-1.86 1.56a20.85 20.85 0 0 1-2 1.64l-.63.47-2.94 2.34-2.14 2-2 1.85-3.3 3-1.27 1.1-1.1.94-1.5 1.45-.8.8-1.53 1.46-3.18 3.12.4-.45-.65.68-2.52 2.53-1.4 1.4a151.76 151.76 0 0 0-12.06 12.27c-3.77 4.26-7.28 8.5-10.4 12.58l-5.25 6.72c-1.38 1.78-2.7 3.66-4 5.47l-1.2 1.73c-3.15 4.45-6.47 9.2-9.45 14-1.78 2.9-3.48 5.9-5.13 8.82l-3.46 6-8.3 14.6c-2.9 5.4-5.3 11.1-7.63 16.62l-.4.92-.9 2.13-2.35 5.64c-1.18 3-2.27 5.94-3.23 8.75a179.54 179.54 0 0 0-2.77 8.94l-.64 2.33c-.5 1.87-1 3.8-1.64 5.68-1.74 5.47-3.05 11-4 15.27v-.17c-.88 3.78-1.68 7.63-2.46 11.36l-.8 3.83c-1.14 5-2.44 10.7-3.32 16.45-.37 2.4-.8 5.2-1.08 8l-.47 5.26-.25 3c-.46 5.37-.63 10.86-.8 16.17v.24c-.1 3.3-.1 6.64-.13 9.87v6.32c-.1 6.16.1 12.17.57 17.88l.9 10 .64 6.9c.2 2.3.55 4.72.88 7l.24 1.7.5 3.8.67 5 2.86 17.4.84 4.58 2.46 12.8.84 3.87 1 4.68c.38 1.87.82 3.75 1.25 5.57l.8 3.5c.77 3.48 1.7 7 2.63 10.36l1.7 6.47 4.4 16.8 2.44 8.42 2 6.74.66 2.33 3.82 13.06 9.3 31.65a284.55 284.55 0 0 0 3.73 12.55l1.84 5.9 2.6 8.24-.2-.7c.72 2.27 1.5 4.58 2.3 6.87.63 1.78 1.37 3.55 2.08 5.27l.7 1.73c1.7 4.2 3.38 8.74 5 13.46 2.68 8.2 5.88 16.37 9 24.27q1.38 3.53 2.75 7.06l.07.2.1.27 1.8 5.73c2.13 6.74 4.5 13.94 7.4 20.92v-.12c.9 2.3 1.74 4.65 2.56 6.93.95 2.65 1.94 5.4 3 8v.06c.37.92.77 1.8 1.18 2.7l.56 1.26 4.6 12.23.25.64 3.06 8c.57 1.56 1.1 3.12 1.63 4.7l2.16 6.14c1.5 4 3.12 8.27 5 12.5.84 1.92 1.76 3.85 2.65 5.72l2.06 4.38a89.59 89.59 0 0 0 4.63 9c1 1.64 1.8 3 2.57 4.48l.7 1.35c.57 1.12 1.17 2.28 1.8 3.38a72.8 72.8 0 0 0 5.69 8.12 38.37 38.37 0 0 0 3.9 4.17l2 1.8c.47.4.92.85 1.35 1.28l.86.85a67.14 67.14 0 0 1 4.68 4.78c2 2.2 4.13 4.27 6.24 6.27l.53.5c1.3 1.22 2.56 2.5 3.8 3.73l3.23 3.2c1.58 1.52 3.25 3 4.88 4.4 1 .92 2.1 1.85 3.15 2.8a67.66 67.66 0 0 0 8.4 6.44l2.77 1.85 3.8 2.53 2 1.26c1.67 1 3.4 2.1 5 3.25l.33.22a62.37 62.37 0 0 0 6.06 3.88c2.2 1.2 4.5 2.37 6.5 3.4 1.72.9 3.42 1.9 5.07 2.86l1 .6a63.28 63.28 0 0 0 8.3 3.92l7.5 3 7.42 3-.88-.4c2.3 1 4.34 1.76 6.27 2.44h.15l6.1 2.26c2.62 1 5.23 2.1 7.84 3.16l4.78 1.93 11.6 5.12c3.27 1.52 6.7 2.86 10 4.15l5.28 2.1c4 1.7 9.26 3.9 14.73 5.92l8 3.08 5.84 2.27 6.1 2.25 7.48 2.77 4.36 1.67 8 3.1 1.27.56 5.34 2.25.8.3 5.45 2.17 8.83 3.75 1.4.6.72.3 3.2 1.36 19.06 8.47c2.23.95 4.47 2 6.64 3l2.77 1.28c3.52 1.6 6.17 2.9 8.6 4.24q6.45 3.52 13 7l3.48 1.87c1.36.73 2.78 1.44 4.14 2.12l4.85 2.5c.76.43 1.53.83 2.3 1.23l2.1 1.1 1.9 1.07 6.96 3.82 4.65 2.54 9.15 4.76 9.25 4.87c2 1 4.08 2.14 6.06 3.2l3 1.62c2.7 1.43 5.48 2.82 8.17 4.17l9.07 4.65a142.81 142.81 0 0 0 18.31 7.74l2.9 1.08a98.25 98.25 0 0 0 10.64 3.11l3.9 1 1.45.4a42.43 42.43 0 0 0 4.25.82l1.47.24 6.14 1.1 4 .72c1.88.34 3.82.53 5.7.7l1.58.16 2.14.23 4.25.43c4.75.37 9.5.42 13.93.42h27.66c2.38 0 4.8-.14 7.1-.28l2.68-.15c3.07-.16 6.16-.4 9.06-.67 1.1-.1 2.22-.23 3.3-.37l2.54-.3 2.64-.25 3.53-.34a112.86 112.86 0 0 0 13.14-2.32c1.72-.4 3.5-.8 5.3-1.08l.72-.1 4.75-.77c1.58-.3 3-.52 4.55-.76 2.25-.36 4.58-.73 6.84-1.22 1.84-.4 3.7-.88 5.5-1.34l4.37-1.08c2.3-.53 4.58-1.18 6.8-1.8l3.22-.9c1.42-.38 2.9-.63 4.33-.88l2.43-.44c1.8-.36 3.55-.9 5.25-1.4l1.52-.45 2.94-.84 4.66-1.36a87.1 87.1 0 0 0 8.46-3.28h.1l4.2-1.65 4.37-1.73c2-.83 4-1.74 6-2.62l2.9-1.3.26-.1.25-.1 5.54-2.15 3.67-1.4c3.65-1.43 7.48-3.13 11.7-5.2 1.8-.9 3.58-1.93 5.3-2.93 1.4-.83 2.86-1.7 4.34-2.45l1.62-.82c.95-.47 1.92-1 2.85-1.48a33.83 33.83 0 0 0 4.3-3.11l.36-.3c1.26-.92 2.58-1.8 3.87-2.65l.8-.54 1.45-.48c2-.67 4.1-1.36 6.1-2.15a62.69 62.69 0 0 0 6.76-3c1.92-1 3.74-2.1 5.27-3l6-3.4 4.5-2.55c2.33-1.35 4.64-2.8 6.87-4.2l4.36-2.7c1.84-1.1 3.74-2.2 5.58-3.23l5.53-3.2 4.6-2.88 5.5-3.43c1.64-1 3.34-1.9 5-2.78l4.22-2.34c2.07-1.2 4.1-2.55 6-3.86l2-1.33a77.3 77.3 0 0 1 9.67-5.15l.8-.4 4-1.92 7.18-3.4 3.76-1.5 5.45-2.2a84.18 84.18 0 0 1 10.95-3.83l11.78-3c4.2-1 8.2-1.9 12.28-2.52l4.92-.65c3.32-.44 6.9-.9 10.42-1.16 3.7-.28 7.37-.37 10.82-.44l14.83-.12h12.36c4.84 0 8.9.05 13 .3 4.72.27 9.43.36 13.42.4h.23c3.93 0 8 .1 12 .33l3.08.17 9 .56c2.48.2 5 .32 7.44.45l6.28.35c3.76.27 7.6.67 11.3 1.06l1.08.1 12.5 1.16c4.24.37 8.38.47 13 .54 3.36 0 6.76.34 10.06.62l2.32.2 2.35.2 10.8.85 3.2.22 10 .66 6.35.44 8.05.52 6.73.36 5.4.3c2.17.1 4.37.28 6.5.45l6.78.46c1.7.1 3.42.13 5.14.16h1c2 0 4 .22 5.9.4h.5l2.55.25 3.76.34 4.57.27 3.1.17c3.44.2 6.93.5 10.3.8l2.4.2c2.45.2 5 .32 7.36.43l5.78.3c4.17.3 8.58.5 13.88.64 2.3.07 4.66.2 6.94.35l6.37.32 6 .14c2.57 0 5.23.1 7.85.2l3.44.16 9.12.37c6.68.16 13.42.17 19.2.17h27.42c3.12 0 6.48 0 9.9-.16 4.8-.2 9.53-.63 13.53-1l3.22-.32 10.44-1.12 8-1 12.46-1.75c5-.8 9.94-1.72 13.7-2.45l3-.58 21.1-4.15 9.08-1.82 14.88-3.07c4.58-1 9.2-2.24 13.65-3.4l9.1-2.35c16.2-4 31.78-9.23 47.64-14.7 8.15-2.8 16.45-5.93 24.67-9.28l7.45-3c5.3-2.1 10.8-4.28 16.1-6.66l5.3-2.45 7.28-3.32 8.67-3.86c2-.9 3.92-1.93 5.8-2.92l2.8-1.46c3-1.55 6.28-3.2 9.33-5.06l8.44-5.25c4.8-3.1 10.37-6.7 15.58-10.58a160.65 160.65 0 0 0 19-16.44l7.83-8.2a82.71 82.71 0 0 0 9-11.15 73.45 73.45 0 0 0 5.73-10.78c1.2-2 2.44-4.2 3.8-6.74l1.7-3.12 2-3.63c1.12-2.1 2-4.24 3.1-6.8 1.93-4.58 3.5-9.38 5-14l.36-1.12a100.85 100.85 0 0 0 3.37-13.55l2.18-12.66c.4-2.4.7-4.88 1-7.27l.76-5.77c.8-5.48 1.16-11 1.4-15.6a130.39 130.39 0 0 0 .15-7.44c0-1.86-.16-3.75-.3-5.58 0-.6-.1-1.2-.13-1.78v-.5l-.52-6.84c-.13-1.38-.3-2.75-.46-4.12l-.38-3.43c-.57-5.6-1.7-11.28-2.7-16.28a126.85 126.85 0 0 0-3.45-13.5c-.36-1.12-.7-2.24-1-3.37-.85-2.8-1.72-5.7-2.82-8.47-1.4-3.53-3.28-8.16-5.35-12.7-1.73-3.8-3.7-7.54-5.62-11.17l-2.54-4.85c-2.5-5-4.67-9-6.84-12.54-2.55-4.18-5.2-8.32-7.94-12.54l-.9-.8c-5-7.76-10.2-15.78-15.94-23.18l-3.82-5-6.45-8.3c-1.9-2.4-3.68-4.54-5.4-6.54-1.3-1.5-2.68-3-4-4.46l-2.3-2.55c-.76-.86-1.26-1.5-1.88-2.26l-2.08-2.5-5.67-6.5-.64-.72.26.3a58.21 58.21 0 0 0-1.81-2l-1.22-1.37-.26-.3.1.15-3.08-3.64-2.74-3.2c-1.85-2.15-3.8-4.26-5.7-6.3l-1.6-1.75-.7-.83c-2.73-3.16-5.54-6.43-8.52-9.47l-1.18-1.22-3-3c-1-1-2.47-2.3-3.87-3.65-1-1-2.1-1.92-3.17-2.83l-1-.84q-2.57-2.2-5.12-4.44a177.15 177.15 0 0 0-9.86-7.87c-1.85-1.38-3.8-2.7-5.7-3.95l-.82-.55.2.15c-2.1-1.38-4.24-2.73-6.32-4l-2-1.27-.94-.83-6.07-5.17-5.92-4.64-5.52-4.3c-1.5-1.2-3.07-2.37-4.58-3.5l-2.28-1.7-7.25-5.38-1.08-.76c-1.4-1-2.85-2-4.3-2.9l-4.5-3-3.55-2.4-.48-.32-6.7-4.36-4.05-2.6.24.18-7.08-4.77-5.7-3.8.08.05-12.5-8.2c-3.8-2.4-7.7-4.9-11.67-7.13-1.6-.9-3.17-1.88-4.7-2.82l-1.63-1c-1.47-.9-3-1.78-4.47-2.65l-1.4-.8-3.55-2.1-8.12-4.7c-1.9-1-3.8-2.07-5.7-3.13l-4.73-2.6c-1.88-1-3.82-2.12-5.78-3-2.43-1.16-5-2.47-7.7-4-2.36-1.32-4.86-2.47-7.27-3.58l-1.38-.64c-.94-.43-1.87-.9-2.8-1.38-1.23-.6-2.5-1.25-3.78-1.8s-2.4-1-3.62-1.5q-1.45-.57-2.88-1.17l-.16-.07c-1.62-.68-3.28-1.37-4.9-2.15a76.46 76.46 0 0 0-7.26-3l.23.1c-3-1.08-5.3-2-7.43-3-1.45-.67-3-1.24-4.46-1.78l-3.08-1.18-.5-.2c-2.85-1.17-5.8-2.4-8.78-3.34l-8.7-2.65-1-.3-7.26-2c-1.3-.3-2.65-.54-4-.77l-.75-.13-1.85-.34-2.76-.5c-1.15-.18-2.4-.34-4-.5-.7-.07-1.4-.17-2.08-.27l-1.92-.25-8.36-.82c-2.8-.23-5.83-.45-8.83-.45h-6.33a25.66 25.66 0 0 0-2.74-.17 11.63 11.63 0 0 0-1.86.13 14.28 14.28 0 0 0-5.49 1.88l-.74.43-.33.2a10.64 10.64 0 0 0-1.63.88 9.39 9.39 0 0 0-3.06 3.49 8.78 8.78 0 0 0-1 3.67l-.07.42a9 9 0 0 0-.16 2.8 11.54 11.54 0 0 0 2.16 5.53 16.91 16.91 0 0 0 1.62 1.84 8.86 8.86 0 0 0 .46.85 20.09 20.09 0 0 0 2.43 3 11.23 11.23 0 0 0 2.21 1.7l.4.3c.44.34.87.7 1.33 1l.13.1a42.34 42.34 0 0 0 4.47 2.76l.42.2a26.87 26.87 0 0 0 2.71 1.27l1.08.4c.9.34 1.84.7 2.74 1.1 1.45.67 3 1.28 4.4 1.88l2.74 1.13c2.95 1.26 5.9 2.63 8.77 4l.27.12c6.37 2.94 12.75 6.13 18.9 9.22l5.1 2.55q6 3 12.1 6l5.64 2.93 6.5 3.37c4.25 2.1 8.52 4.37 12.18 6.33 1.92 1 4 2.18 6.25 3.52 1.46.86 3 1.65 4.47 2.42l1.78.93c7.8 4.13 15.34 8.38 23 12.74 3.15 1.78 6.28 3.72 9.3 5.6l2.6 1.6 1.75 1.07c1.33.83 2.7 1.7 4.1 2.47l1.57.9 3.13 1.78 8.9 5.22c7.54 5.3 14.84 11.16 21 16.2 1.78 1.46 3.63 2.88 5.42 4.26l5.72 4.5c3.5 2.9 7.17 5.72 10.72 8.45l.7.54a129.72 129.72 0 0 1 4.92 4c1.9 1.57 3.87 3.2 5.88 4.7l11.1 8.43 5.93 4.34c1.47 1 2.9 2.2 4.3 3.3l1.15.93c.9.7 1.76 1.45 2.62 2.2l2.48 2.1q2.73 2.2 5.43 4.4l3.54 3 3.85 3.3c.36.3.73.6 1.1.88.8.62 1.6 1.26 2.35 2l1.33 1.33 1.33 1.34 1 1c.8.77 1.6 1.58 2.44 2.32s1.66 1.38 2.48 2 1.93 1.52 2.83 2.35c.54.48 1.06 1 1.58 1.5.7.68 1.42 1.38 2.17 2 1.54 1.33 2.83 2.47 4.07 3.68l2.34 2.38a59.85 59.85 0 0 0 1.37 1.29c.7.64 1.4 1.3 2.06 2 .8.86 1.7 1.67 2.57 2.44s1.62 1.47 2.38 2.26c.58.68 1.22 1.4 1.9 2.1.27.3.54.56.82.84s.82.84 1.22 1.27q1.88 2.16 3.76 4.3l-.78-.92 2 2.3c1.46 1.73 3 3.67 4.68 5.92l1.44 2.83c.7 1.33 1.47 2.63 2.23 3.9s1.66 2.76 2.4 4.2l-.18-.4-.1-.2a31.28 31.28 0 0 0 3 4.86 38.84 38.84 0 0 1 3 4.37l.45.83 2 3.5.47.78c.57.93 1.15 1.9 1.68 2.86a37.69 37.69 0 0 0 2.67 5l.88 1.28a34.84 34.84 0 0 1 2.09 3.27l.07.14 1.87 3.76c.36.7.74 1.4 1.12 2.08l.54 1c.27.64.5 1.3.76 1.94a33.08 33.08 0 0 0 1.29 3.09l1.94 3.74.95 1.8c.37.87.7 1.77 1 2.64.18.54.37 1.1.58 1.62.5 1.3 1.1 2.6 1.68 3.82l.16.35.52 1.1 2.22 4.57c.4.78.82 1.55 1.24 2.32l.17.3a28.06 28.06 0 0 1 1 3.42l.3 1.2c.32 1.15.73 2.3 1.13 3.4l.62 1.78a99.67 99.67 0 0 1 3.26 12.21c0-.14 0-.28-.07-.42l.4 1.87 1 5.92v.2a75 75 0 0 1 .75 7.59l.07 1.05a131.13 131.13 0 0 1 .4 16.21l-.22 3.17v.68l-.22 3.43c-.07 1.15-.16 2.64-.16 4.1v4.93a94 94 0 0 1-2.78 16l-.74 2.6c-.43 1.5-.88 3.06-1.23 4.6-.57 2.5-1.14 4.6-1.8 6.6l-1.07 2.93-1.4 3.8a42.16 42.16 0 0 1-3 6.42c-.4.7-.78 1.42-1.15 2.13-.66 1.25-1.35 2.54-2.1 3.75-1.44 2-3.08 3.87-4.67 5.68l-1.12 1.3a116 116 0 0 1-8.84 9.2 92.55 92.55 0 0 1-8.61 6.55l-1.27.84a93.33 93.33 0 0 1-8.47 5.22l.26-.1a113.51 113.51 0 0 0-4.22 2.2c-.5.26-1 .53-1.45.8-1 .56-2 1.14-3.06 1.67l-8.57 4.5-1.1.55-.48.23c-5.5 2.63-11.16 5.05-16.84 7.18-3.64 1.37-6.94 2.57-10.34 3.48h-.14l-2.76.24-32.67 3.7c-4.75.57-9.9 1-16.24 1.35-4.2.22-8.44.3-12.55.4l-3.68.1h-3.65c-2.76 0-5.57-.06-8.28-.12l-4.38-.1c-2.23 0-4.47-.06-6.7-.08-3.1 0-6.2-.07-9.3-.14-2.33 0-4.65 0-7-.06-3.66 0-7.45 0-11.17-.2l-8.07-.32-10.33-.44q-4-.3-8-.55l-4.36-.3-3.24-.26-8.5-.7q-2.6-.25-5.2-.54l-6.2-.62-11.55-1.13c-3.67-.4-7.52-.65-11.2-.88l-2.1-.14h.18c-1.3-.12-2.6-.2-3.92-.3-9.74-.9-19.77-2.3-28.62-3.53-4.3-.6-8.56-1.45-12.67-2.27l-7.62-1.43-5.67-1-9.68-2-5.6-1.2q-5.2-1.1-10.4-2.24c-2.52-.56-5.1-1.07-7.58-1.56l-4.65-.94c-3.47-.72-7-1.57-10.36-2.4l-2.28-.55-5.08-1.27c-3.15-.8-6.4-1.64-9.65-2.3-2.8-.57-5.62-1.22-8.36-1.84l-6.06-1.36-29.68-6.6-3.54-.73-3.6-.74c-1.2-.26-2.52-.6-3.73-.92l-2.6-.66-12.9-3.2c-1.3-.32-2.63-.6-3.92-.88l-2.37-.52a70.41 70.41 0 0 1-3.86-1l-2.64-.68-7.8-1.83-3.3-.75c-4.83-1.12-9.68-2.52-14.36-3.87l-8.26-2.34-6-1.5-2.32-.52c-1.2-.27-2.47-.54-3.7-.88l-2.72-.82-2-.62-11-3.86-5.6-2-25.32-8.58-27.92-8.9-5.74-2-12.54-4.27-7.77-2.4-9.6-3-4.26-1.42c-4.53-1.54-9.2-3.12-13.7-5-4.1-1.7-8.35-3.3-12.45-4.85l-3.5-1.32c-2.17-.82-4.4-1.6-6.57-2.33l-8.5-3.1c-5.05-2-10.3-4.36-16.07-7.13l-7.8-3.64c-1.36-.62-2.75-1.2-4.13-1.77l-4.26-1.84-7-3c-3.15-1.32-6.4-2.7-9.55-4.2s-6.4-2.94-9.56-4.33l-6.35-2.83c-1.72-.8-3.5-1.5-5.23-2.18l-2.62-1.06-.7-.3-7.36-3.1c-3.5-1.5-7.14-2.85-10.65-4.15l-4.93-1.85c-4.4-1.68-9-3.15-13.38-4.57l-3.48-1.12.84.3-5.24-1.67-4.42-1.38c-1.74-.6-3.46-1.24-5.2-1.88l-6.2-2.23-5.7-2-7.2-2.46a253.81 253.81 0 0 0-14-4.21l-1.53-.4-9.47-2.64-2.66-.95-6-2.07c-2.8-.88-5.64-1.65-8-2.28-5-1.33-10.2-2.57-15.8-3.77l-2.53-.53-5.32-1.16c-2.7-.66-5.35-1.28-8.07-1.78-1.8-.32-3.63-.6-5.4-.87l-3.82-.6c-1.5-.25-3-.55-4.5-.84l-3.4-.65a76.75 76.75 0 0 0-8.43-.94h-.3a113.62 113.62 0 0 1-16.77-2.25c-1.85-.4-3.72-.86-5.52-1.3a75.49 75.49 0 0 0-10.49-2.1l-7.22-.66c-3.22-.28-6.56-.56-9.84-1s-6.77-.73-10.08-1l-7.5-.75c-3.66-.4-7.33-1.06-10.9-1.7l-6-1-8.3-1.2c-1.86-.23-3.76-.4-5.6-.58l-2.78-.26-6.45-.7-10.08-1-6-.55c-3.6-.35-7.33-.7-11-.88-2.2-.1-4.46-.17-6.7-.2h-6l-1.75-.13-2.73-.2-2.12-.24-.74-.1-.85-.1c-.73-.07-1.5-.15-2.22-.3a33.07 33.07 0 0 0-5.76-.47h-1.2c-.82 0-1.64-.1-2.47-.1l-3.5-.8c-1.86-.4-3.8-.63-5.67-.85l-1.8-.22c-1.76-.22-3.54-.53-5.25-.82l-2.47-.42c-2.16-.35-4.5-.65-7.54-1-3.28-.35-6.47-.5-9.27-.56-1.1-.06-2.22-.17-3.3-.28l-2.5-.22c-1-.07-2-.1-3-.16l-2.5-.12-7.65-.42-7.7-.38c-1.3-.07-2.58-.2-3.84-.34l-2.58-.25c-2-.16-4-.26-5.9-.36h-.7a81.39 81.39 0 0 1-2.85-.2l-3.83-.23c-1.93-.06-3.9-.18-5.8-.3l-4.78-.27-2.82-.13-9-.33c-3-.07-6.1-.4-9.9-.82-1.76-.2-3.54-.46-5.26-.7l-4-.56a101.1 101.1 0 0 1-10.42-1.82 117.27 117.27 0 0 1-10.41-2.6l-3.4-1-1.44-.42-.23-.07-3.75-1.1.35.12-4.8-1.32-3.7-1a107.47 107.47 0 0 1-12.94-5.22l-2.77-1.34-3.9-1.86c-2.13-1-4.55-2.07-6.8-3.35-1.32-.85-2.72-1.74-4.17-2.54-.87-.48-1.77-.9-2.65-1.32l-1.4-.67c-1.3-.65-2.6-1.4-3.84-2.1s-2.5-1.44-3.8-2.1c-2.23-1.1-4.42-2.38-6.54-3.6l-1.05-.6c-1-.6-2.1-1.2-3.17-1.77-1.46-.8-3-1.63-4.42-2.5l-.27-.17-.48-.3-.23-.14-.17-.1h-.08l-4.74-3-6-3.92-2.34-1.5c-1.15-.73-2.34-1.5-3.47-2.3l-2.8-2c-2.53-1.8-5.14-3.65-7.6-5.65l-2.54-2-2.73-2.18c-1.17-1-2.3-2-3.4-3l-.56-.5c-.8-.72-1.65-1.38-2.48-2l-1.33-1a45.61 45.61 0 0 1-4.09-3.78l-5.1-5.15c-.6-.6-1.23-1.16-1.87-1.73l-1.52-1.4-.8-1c-.48-.58-1-1.15-1.47-1.7-.9-1-1.9-2-3-3l-.7-.65c-.34-.43-.67-.88-1-1.32l-.8-1.07c-.57-.74-1.15-1.5-1.66-2.28l-.84-1.93-.24-.57a36.48 36.48 0 0 0-2-3.87l-.34-.6a41.15 41.15 0 0 1-1-2.24c-.32-.76-.62-1.45-1-2.16s-.56-1.15-.84-1.73a46.12 46.12 0 0 1-2-4.45 83.69 83.69 0 0 1-2.6-8.89c-.54-2.46-.86-5-1.17-7.5l-.13-1a79.72 79.72 0 0 1-.72-9.32 88.3 88.3 0 0 1 2.87-19.52 89.84 89.84 0 0 1 4-9.69c.85-1.85 1.68-3.5 2.52-5.07l.64-1.23c.43-.84.88-1.72 1.4-2.55a43.78 43.78 0 0 1 5.84-7.2l2.47-2.35c.67-.6 1.42-1.2 2.3-1.85l3.62-1.7.7-.32c5.2-2.43 9.48-4.24 13.4-5.7 1.77-.66 3.62-1.2 5.4-1.7l1.4-.4c1.57-.47 3.16-1 4.7-1.5l2.13-.7c2.48-.8 5-1.48 7.52-2.14l6-1.68 2.47-.76 3.88-1.17c1.3-.38 2.5-.7 3.74-1l2.9-.78c1.5-.43 3-.9 4.5-1.36l2-.6c2.37-.73 4.8-1.32 6.94-1.85 4.23-1 8.34-2.32 12.88-3.76 1.72-.54 3.45-1.17 5.13-1.77 2.47-.9 5-1.82 7.6-2.5 2.23-.6 4.3-1.24 6.34-2 .62-.23 1.25-.43 1.88-.63a32.9 32.9 0 0 0 3.23-1.17c2.14-1 3.92-1.7 5.63-2.33l.73-.26c1.44-.53 2.93-1.08 4.44-1.5a36.88 36.88 0 0 0 4.27-1.15 48.48 48.48 0 0 0 3.88-1.58l1.85-.8c1-.42 2-.93 3-1.4l1.7-.82c1.44-.68 3-1.32 4.64-2 2.45-.94 5.34-2.08 8.2-3.4 1-.44 1.87-.9 2.8-1.37l2.25-1.1 2.26-1 2.4-1.1c1.5-.73 3-1.57 4.4-2.4l1.3-.75 1.45-.75a7.88 7.88 0 0 0 2-1l.14-.07.7-.4.6-.33.3-.17.33-.17 3.86-2.12c1-.5 2-1 3.05-1.42.74-.32 1.47-.65 2.2-1 2-.93 4.54-2.16 7.12-3.5 2.47-1.32 5-2.5 7.1-3.5s4.45-2.28 6.57-3.5l1.76-1a59.54 59.54 0 0 0 6.6-3.84c.53-.36 1-.74 1.57-1.12.73-.53 1.48-1.08 2.26-1.58 1.13-.72 2.22-1.5 3.28-2.3l.74-.53 1.4-1c1.74-1.24 3.54-2.52 5.24-3.86 2.23-1.75 4.35-3.76 6.4-5.7l.58-.54.4-.38.1-.1.16-.16q3-2.87 6.1-5.92c1.9-1.9 3.62-4 5.3-6s3.35-4.12 5-6.28c.44-.58.9-1.15 1.35-1.72.93-1.2 1.9-2.42 2.76-3.7a34.12 34.12 0 0 0 3.32-6 22.59 22.59 0 0 0 1.2-3.91 17 17 0 0 0 .2-3.65v-.58.78a10 10 0 0 0-.13-1.93 7.67 7.67 0 0 0-.17-.83l-.28-1.1a3.69 3.69 0 0 0 .11.56 8.63 8.63 0 0 0-1.7-3.4 12.77 12.77 0 0 0-2.72-2.55l-.1-.07a9.5 9.5 0 0 1-1.17-1l-.14-.12a12.85 12.85 0 0 0-3.74-2.32 16.22 16.22 0 0 0-1.83-.73l-.46-.15a19.84 19.84 0 0 0-2.82-.74l-.7-.17a37.79 37.79 0 0 0-10.38-1.51h-.15c-1.85 0-3.67.1-5.53.23l-.86.06c-1.48.1-3 .2-4.52.38a100 100 0 0 0-11.48 2.43l-.53.12h-.35c-1.3.32-2.54.64-3.76 1l-1.68.43-.32.08-1 .23-2.75.66-1.86.46 1.45-.33c-2.13.5-4.26 1.1-6.32 1.68l-4.22 1.15-3 .73.5-.1c-.75.18-1.48.38-2.22.58l-2.56.67c-1.26.3-2.5.58-3.7 1l-1.4.45-1.94.6-.4.1c-1.35.3-2.74.6-4.1 1-.77.2-1.54.45-2.3.7s-1.8.56-2.74.8c-1.37.35-2.75.77-4.1 1.18l-.77.24a114.99 114.99 0 0 1-3.31.94l-3 .84-4.18 1.26-8.86 2.6a122.25 122.25 0 0 1-3.42.9l-2.76.72c-1.27.35-2.55.78-3.8 1.2l-2.3.76c-1 .3-1.95.58-2.93.85l-3.08.9c-1.8.58-3.55 1.1-5.2 1.53a55.68 55.68 0 0 0-6.16 1.79l-5.16 1.8c-1.2.38-2.38.8-3.57 1.2-1.82.64-3.7 1.3-5.57 1.83l-.9.17-2.2.46c-2 .48-4.1 1-6.13 1.64-2.6.85-5.53 1.7-9.17 2.65-1.27.27-2.62.5-4.25.7a52.54 52.54 0 0 0-6.55 1.29c-1 .26-2 .6-3 .94l-1.57.53a106.04 106.04 0 0 1-3.45 1c-2.15.5-4 1-5.75 1.53l-4.7 1.37-7.26 1.75c-1.08.22-2.2.4-3.32.52a33.73 33.73 0 0 0-4.92 1c-1.24.33-2.24.63-3.13.94a26.25 26.25 0 0 0-3.91 1.85c-.64.28-1.3.52-1.95.75s-1.26.45-1.88.72-1.26.55-1.94.78a14.14 14.14 0 0 0-2.41 1.17h-.1c.44-.7 1-1.46 1.5-2.2a39.08 39.08 0 0 1 2.53-3c1.34-1.4 2.64-2.68 4-3.87l.75-.7a46.16 46.16 0 0 1 4.35-3.65c3.12-2.2 6.38-4.3 9.54-6.35l.12-.08a62.18 62.18 0 0 1 12.11-5.49c2.3-.82 4.63-1.7 6.82-2.54 1.8-.7 3.7-1.3 5.35-1.85 2.08-.62 4.2-1.2 6.27-1.76s3.83-1 5.74-1.6l2.86-.85c3.26-1 6.62-2 10-2.8l1.23-.3c4.67-1.13 9.5-2.3 14.15-3.82l3.15-1 .66-.22.6-.2a7.81 7.81 0 0 0 1.74-.55l.86-.27 5.83-1.8 3-1-.32.1 1-.33 2-.63c2.92-.9 5.9-1.72 8.8-2.52l9-2.6.95-.3.2-.06.46-.15-.53.15c1.1-.34 2.2-.7 3.3-1.07l2.5-.82 2.84-.9-.8.23a173.61 173.61 0 0 0 10.63-3.73l2.53-.73 2.08-.58 3.1-.88c1.4-.42 2.8-.9 4.17-1.35l2-.7a200.51 200.51 0 0 0 18.87-6.79l7.37-3 5.6-2.26a166.13 166.13 0 0 0 5.42-2.33c1-.43 1.92-.93 2.84-1.4.6-.3 1.15-.56 1.7-.8s1-.44 1.43-.68c1.08-.55 2.2-1.06 3.28-1.56l2.8-1.32 2.8-1.36c1.08-.5 2.17-1 3.24-1.57l2.74-1.5c.9-.5 1.9-1.1 2.9-1.6a77.09 77.09 0 0 0 7.45-4.16 40.55 40.55 0 0 0 7-6.15l.57-.6.25-.27.08-.06.1-.1.13-.14a23.82 23.82 0 0 0 3.43-4.3l.22-.38a21.29 21.29 0 0 0 1.59-3.21 11.21 11.21 0 0 0 .71-4.22V382c0-1.1-.1-2.26-.2-3.46a16.45 16.45 0 0 0-1.47-5.09 29.47 29.47 0 0 0-1.73-3.41l-.3-.48a11.12 11.12 0 0 0-1.33-1.89l-.12-.14a5.88 5.88 0 0 1-.53-.59l-.48-.67-.07-.12a33.88 33.88 0 0 0-.76-1.21c-.07-.1-.14-.2-.22-.3a17.8 17.8 0 0 0-1.09-1.66 8.29 8.29 0 0 0-1.15-1.17l-.14-.2c-.1-.14-.22-.3-.34-.42a11.92 11.92 0 0 0-1.36-1.29 37.42 37.42 0 0 0-2.58-3.67l-.46-.56c-.42-.53-.86-1.07-1.33-1.57s-1.22-1.2-1.84-1.78l-.76-.7-.14-.13a39.14 39.14 0 0 0-3.88-3.38l-1.9-1.38-1.53-1.1a73.72 73.72 0 0 0-7.09-4.63c-3-1.7-6.15-3.47-9.4-5-2.3-1.1-4.72-2.17-7.4-3.3s-5.44-2.06-8-2.9c-1.2-.4-2.43-.78-3.65-1.15l-4.17-1.34c-2.5-.85-5.13-1.5-7.66-2.1l-.27-.07-3-.77c-2.72-.7-5.53-1.4-8.34-1.94a172.57 172.57 0 0 0-17.78-2.55h-.6l-8.4-.57h-.62c-1.43-.06-2.9-.12-4.33-.27l-1.63-.18c-1.1-.13-2.2-.26-3.33-.32l-2-.1c-2.76-.13-5.6-.28-8.42-.52a104.92 104.92 0 0 0-9.18-.41h-11.86a49.05 49.05 0 0 0-7.56.58l-.55.1-4.07.68c-1.63.26-3.1.45-4.47.57-1.1.1-2.2.26-3.25.43l-1.85.26c-.65.1-1.3.16-1.94.23-1 .1-2.1.23-3.17.4-1.7.3-3.23.54-4.78.7l-1.1.1c-.57 0-1.16.08-1.74.17-.74.12-1.7.26-2.7.34-.78.06-1.56.16-2.34.26-.94.1-1.9.23-2.88.3h-5.42c-.88 0-1.75 0-2.63.08h-3.47l-1.72.08h-3.2a31.11 31.11 0 0 1-3.6-.35c-.92-.2-2-.43-3.1-.6s-1.94-.3-2.78-.47l-.55-.1a31.61 31.61 0 0 1-2-.6l-.84-.26c-1.18-.35-2.4-.67-3.75-1h.14l-.5-.1-.5-.1-.53-.13h-.16l-.65-.15-1.72-.36-.5-.1-1-.2a219.11 219.11 0 0 1-6.34-1.19l-2.25-.6c-1.2-.3-2.45-.57-3.65-.82l-.4-.08-.7-.17a44.67 44.67 0 0 0-10.53-1.45c-1.43 0-2.88-.07-4.28-.12h-1.65zm259.58 484.4l-2.05-.28 2 .26zm1156.46 100.1v-.32.32z"/><path d="M1708.5 957.4l-1.88 1a8.19 8.19 0 0 0-2.76 3.17l-4.75 7.9c-2 3.38-3 7.15-4.1 10.85-1.2 3.4-2.7 6.7-4.15 10-.73 1.7-1.42 3.4-2.23 5.08a40.8 40.8 0 0 1-2.25 4 73.12 73.12 0 0 1-6.33 7.4c-2.4 2.48-4.8 5-7.35 7.33l-5.54 4.9c-2.47 2.17-4.95 4.34-7.58 6.32a101.61 101.61 0 0 1-8.84 5.85c-2.34 1.4-4.56 3-6.87 4.42l-5.66 3.5-4.66 3c-1.6 1-3.27 2.25-4.9 3.36-1.83 1.25-3.8 2.27-5.62 3.52s-4 2.53-6 3.72l-7.12 4-8.16 4.46.45-.23-3.8 2-4 2-1.85.94a261.86 261.86 0 0 1-7.56 3.56c-2.83 1.32-5.64 2.67-8.52 3.88l-7.74 3.26c-2.56 1.06-5.2 2-7.8 3s-5.4 2-8.13 2.88c-2.92.92-5.8 2-8.7 2.92-5.92 1.92-11.92 3.57-17.9 5.3-2.77.8-5.58 1.5-8.37 2.26s-5.77 1.54-8.68 2.2l-4.1.87.5-.1-4.84 1a257.86 257.86 0 0 1-8.21 1.56l-9.1 1.65-21.83 3.76c-6.37 1.12-12.77 2.1-19.2 2.88-3.47.43-7 .64-10.45 1s-7 .5-10.42.7l-12.5.6c-4.76.17-9.54.1-14.3.07-4.48 0-9-.13-13.42-.18-2.58 0-5.15 0-7.72-.07l-8.07-.32 2.2.12c-2.83-.16-5.65-.2-8.5-.3-2-.07-3.9-.14-5.86-.1-4.1.08-8.2.14-12.3 0l-3.57-.2-9-.58-7.87-.45-5.1-.25-10-.75h.74l-3.7-.34c-1.9-.14-3.78-.2-5.68-.28-3.8-.28-7.6-.84-11.4-1.14-2-.15-3.92-.4-5.88-.58l-5.85-.5c-1.65-.17-3.3-.22-5-.35l-6.07-.56-11.45-1-11.1-.87c-4.18-.34-8.34-.9-12.5-1.33-6.52-.67-13-1.6-19.52-2.45l-5.54-.72c-2-.3-4-.73-6-1.1-3.08-.58-6.17-1.16-9.27-1.6-3.47-.5-6.95-.75-10.4-1.4l-10-1.87c-6.53-1.2-13-2.28-19.64-3.14-7.06-.92-14-2.6-21.07-3.66-3.65-.54-7.33-.73-11-1.25-3.16-.45-6.34-.7-9.52-.9-7-.45-14-1.45-20.94-2.3-3.84-.47-7.66-1.1-11.5-1.66l-5.94-.76c-1.94-.25-3.94-.63-5.9-1a155.41 155.41 0 0 0-22.69-2.12c-5.24-.1-10.46-.3-15.7-.54l-3.42-.17-10.1-.7c-4.4-.38-8.8-.33-13.22-.36-3.48 0-7-.07-10.45.17s-7.06.62-10.6.93q-11.7 1-23.4 2.38c-3.5.4-7 1.08-10.43 1.73s-6.75 1-10.08 1.74a51.63 51.63 0 0 0-6.14 1.7c-1.5.5-3 .9-4.57 1.3a54.39 54.39 0 0 0-10.55 4.71c-1.48.75-3 1.53-4.37 2.37-1.86 1.1-3.65 2.33-5.43 3.55a8.25 8.25 0 1 0 9.29 13.63 98.59 98.59 0 0 1 9.07-5.55l-1.23.63 2.88-1.5c.95-.47 1.9-.93 2.9-1.32 1.3-.52 2.66-.88 4-1.27l3.55-1c1.17-.36 2.08-.72 3.14-1l6.8-1.13c2.86-.52 5.7-1.14 8.6-1.57 6.55-1 13.17-1.52 19.77-2.2l18.56-1.7c2.18-.15 4.36-.15 6.54-.14h2.35l9.08.05 7.76.57 9.86.56h-.5l9.65.43c3.22.14 6.4.13 9.6.25 2.93.2 5.86.38 8.77.72 3.83.45 7.63 1.1 11.43 1.73s7.68 1 11.5 1.6l11.35 1.6c7 1 14 1.54 21 2.1 3.38.27 6.73.86 10.1 1.18 3.64.34 7.24.76 10.85 1.38l10.83 2c3.1.6 6.23 1 9.38 1.45 6.74.9 13.43 2.15 20.12 3.4 3.46.65 6.94 1.43 10.44 1.87 3.1.4 6.23.68 9.32 1.2l10.06 1.83c3.57.67 7.2 1 10.78 1.55 3.26.5 6.54.8 9.8 1.25l11 1.28c4 .52 8 .8 12 1.12l11.08 1 22.44 1.93q2.88.2 5.74.55c2.1.24 4.2.33 6.3.56l6.1.66c2.43.23 4.87.32 7.32.42l5.94.44-1.24-.07c2.1.12 4.17.4 6.26.53l7.25.4 5.47.26 4.4.3h.8l10.48.66 7.28.3h6.5c4.36 0 8.72 0 13.07.2h-.1q6.1.32 12.2.44c3.56.08 7.12 0 10.68.06 7.5.08 15 .33 22.52 0l10.1-.52 10.27-.6 10.5-1c3.25-.28 6.48-.82 9.7-1.26 4.33-.6 8.64-1.34 12.94-2.1l21.56-3.7c2.14-.34 4.06-.77 6.1-1.14 4.14-.74 8.26-1.53 12.37-2.4l3.13-.66 4.84-1c3.43-.76 6.83-1.58 10.22-2.52l9.1-2.45 17.9-5.32 8.74-2.92c2.73-.86 5.44-1.85 8.1-2.9s5.22-1.92 7.8-3l7.75-3.27c3.1-1.3 6.13-2.8 9.2-4.2q4.24-1.95 8.4-4l2.9-1.47-1.9 1 2.67-1.36 6.77-3.48-.54.27c5.35-2.75 10.6-5.7 15.83-8.66a97.05 97.05 0 0 0 6.17-3.79l2.47-1.63c1-.63 2.08-1.18 3.1-1.84 1.7-1.1 3.26-2.42 5-3.45s3.15-1.92 4.7-3c1.8-1.2 3.67-2.27 5.5-3.43 2.26-1.42 4.47-3 6.76-4.34a109.11 109.11 0 0 0 11-7.43c3.48-2.75 6.76-5.78 10.07-8.74 1.9-1.65 3.82-3.26 5.62-5s3.7-3.68 5.5-5.54a68.68 68.68 0 0 0 9.57-11.86 93 93 0 0 0 5.9-12.38c1-2.2 2-4.4 2.72-6.68l2.25-7.1a50 50 0 0 1 3.47-6.6l3.1-5.1c1.1-1.7 1-4.5.37-6.4a8.32 8.32 0 0 0-4.14-4.64 8.25 8.25 0 0 0-6.4-.36zm-114.6 107.77l-.9.45.9-.45zm-570.1 7.48l1.53.08-1.53-.08zm485.17 22.48l-1.63.35 1.66-.36zm-181 28.67h-.66.66zm183.52-12.52l.83-.18-.83.18zm1.22-.26l-.4.08 1.25-.27-.86.2zm-644.2 40.6a3.41 3.41 0 0 0-2.21 1.22l-1.3 1.33-6.9 6.37-3.8 3-3.87 3.1-7.7 5.65-7.73 5.37c-1 .7-2.13 1.36-3.22 2l-4.1 2.17.4-.22-2 1.14.76-.42-.78.44.14-.08-.64.36.25-.14-.26.15-1.1.6-2.17 1.23-1.15.73-1.88 1.02-1.58.88.76-.43a34.84 34.84 0 0 1-3.41 1.69c-.6.26-1.18.58-1.77.88l-2.16 1c-1.9.93-3.88 1.68-5.85 2.46l-3.88 1.47-3.8 1.57c-1 .4-2.1.7-3.16 1.06a19.31 19.31 0 0 0-3.2 1.56l.76-.43-2.46 1.28-1.3.58a11.9 11.9 0 0 0-1.82 1.1c-1.433 1.082-1.717 3.122-.635 4.555s3.122 1.717 4.555.635l.47-.33 1.7-.78 2.8-1.5-.76.43a13.42 13.42 0 0 1 2.78-1.2 36.3 36.3 0 0 0 3.5-1.23l1.87-.83c.62-.28 1.3-.5 1.94-.72l3.8-1.47 2.94-1.17c.9-.36 1.76-.8 2.63-1.23l3.82-1.83a36.29 36.29 0 0 0 3.57-1.82l.82-.46 2.66-1.44 2-1.24 2-1.1.72-.4-.33.18 2.2-1.26-.76.42.7-.4 4.12-2.2 3.1-1.9 7.7-5.35c5.37-3.63 10.38-7.75 15.46-11.78 1.63-1.3 3.16-2.73 4.66-4.17 1.7-1.6 3.4-3.2 5-4.9a3.24 3.24 0 0 0-2.56-5.25 2.06 2.06 0 0 0-.35 0zm-46.6 40.94l-.4.23.4-.23zm7.7-4.37l.22-.13-.22.13zm-4.12-5.07l.1-.06-.12.07z"/><path d="M876.18 1149.4a3.41 3.41 0 0 0-2.21 1.23c-.85 1-1.73 1.87-2.63 2.77l-7.1 6.33-7.63 5.9-7.62 5.17-3.87 2.35-3.47 2-1.66.92.77-.43-2.4 1.36-5.27 3-.43.24.3-.16-7.65 3.72-3.73 1.83-3.5 1.77-7.23 3-3.53 1.5-3.5 1.62c-1.15.62-2.34 1-3.53 1.5l-4.56 1.82-3.77 1.63a23.32 23.32 0 0 1-3.32 1.35 3.25 3.25 0 0 0-1.042 5.755 3.25 3.25 0 0 0 3.442.245 25.52 25.52 0 0 0 2.79-1.08l1.34-.67 2-.85 6.88-2.74 6.63-3 6.92-2.9 4.4-2 4.55-2.33 4.6-2.17q2.68-1.24 5.27-2.7l-.42.24 1.72-1 5.86-3.28a147.76 147.76 0 0 0 31.66-22.89l3.8-3.9a3.26 3.26 0 0 0-2.57-5.26h-.35zm-33.86 25.4l-.24.13.24-.13zm-8.48 4.75l-.2.1.2-.1zm10.48 1.5l-.66.37.66-.37zm-2.25 1.26l-.2.12.2-.12zm-6.35 3.56l.34-.2-.34.2z"/></g><g fill="#dc8200"><path d="M311.66 857.52a64 64 0 0 0-6.55.34 62.3 62.3 0 0 0-10.41 2l-9.5 3-4.57 1.7a36.88 36.88 0 0 0-4.61 2.26l-5.78 3.55-2.42 1.54a41.52 41.52 0 0 0-8 6.48 44.51 44.51 0 0 0-6.09 7.83 36.17 36.17 0 0 0-3.54 8.11l-1 3.6a23.75 23.75 0 0 0-.7 4.58 65.33 65.33 0 0 0-.07 7.65l.37 4.3.43 2.7.27 1.62.07.68a26.51 26.51 0 0 0 .56 3.61 44.35 44.35 0 0 0 1.52 4.61 102.5 102.5 0 0 0 4.32 9.77 39.5 39.5 0 0 0 5.69 8.34l3 3.16.6.6 3.24 3.2 3.72 3.44 2.55 2.13 1 .82c2.85 2.33 5.53 4.38 8.22 6.27 2.43 1.7 5 3.33 7.4 4.9l.57.36a78.65 78.65 0 0 0 8.16 4.58l2.14 1 2.57 1.24 1.62.8 2.5 1.23c1.87.87 3.78 1.7 5.63 2.5l2.86 1.25a73.87 73.87 0 0 0 8.77 3.28c1.75.53 3.55 1 5.3 1.48l4 1.1c2.35.68 4.72 1.48 7 2.26l2 .66c2.6.87 5.43 1.7 8.92 2.58 1 .26 2 .5 3 .72a61.71 61.71 0 0 1 6.17 1.64 92 92 0 0 0 9 2.62l.67.16c2.8.65 5.7 1.32 8.6 1.72 1.93.28 3.9.43 5.8.58l4.1.37 2 .22 2.75.3c1.68.16 3.32.2 4.85.24h1.06c1.14 0 2.28 0 3.42-.07s2.35-.07 3.53-.07h1c1.38 0 2.76.1 4.14.15l5.83.17c.87 0 1.75 0 2.62-.06-.76.48-1.52 1-2.3 1.45-2.35 1.45-4.46 2.7-6.45 3.83l.28-.14-3.84 2.07a39.47 39.47 0 0 1-3.94 1.72c-1.5.58-3 1.25-4.4 1.9l-.83.37-3.62 1.68-4.37 2.05c-.84.37-1.65.77-2.46 1.18l-1.87.9a42.96 42.96 0 0 1-2.33 1l-1.82.78a43.5 43.5 0 0 0-2.9 1.42l-1.15.58a49 49 0 0 1-4.51 2.07l-2.14.83-1.83.7a144.92 144.92 0 0 0-4 1.61c-.82.35-1.66.65-2.5 1l-1.54.57a69.19 69.19 0 0 0-3.09 1.36l-.83.4a104.81 104.81 0 0 1-3.68 1.59l-.24.1-7.37 3c-1.36.53-2.77 1-4.14 1.5s-2.9 1-4.32 1.58l-7.9 3.26c-1.35.53-2.77 1.17-4.1 1.77l-3.4 1.5c-1.15.5-2.44 1.1-3.6 1.67l-.65.32c-1.14.56-2.5 1.22-3.78 1.93l-2 1.13-.43.25-1.35.75-2.04 1.13-.2.12-1.12.65-.57.32-.37.2c-1 .55-2.05 1.12-3.06 1.73-.5.3-1 .63-1.43 1s-.77.55-1.17.8l-.6.38c-.5.32-1 .65-1.54 1s-1.17.85-1.77 1.25a25.94 25.94 0 0 0-3.78 3.16 18.28 18.28 0 0 0-1.9 2.34l-.75 1-.8 1.08v.1q-.6.6-1.2 1.23a11.76 11.76 0 0 0-1.5 2.23l-.2.35c-.5.88-1 1.8-1.42 2.68-.28.56-.56 1.1-.86 1.66a48.59 48.59 0 0 0-3.36 8l-.84 2.56c-.77 2.3-1.55 4.65-2.1 7a94.67 94.67 0 0 0-1.64 9.47c-.16 1.3-.24 2.66-.32 4v.53c-.14 2.34-.2 4.13-.16 5.8a161.27 161.27 0 0 0 .33 10.27c.14 2.23.13 4.5.12 6.7v6.3c0 2.3 0 4.68.17 7 .1 1.74.3 3.5.52 5.2l.43 4.1.2 2.12c.23 2.58.47 5.25.53 7.88v1.72c0 .87 0 1.78.06 2.66.1 1.6.26 3.16.43 4.75l.1 1a72.11 72.11 0 0 0 1.21 8.07 32.69 32.69 0 0 0 1.25 4.42 20.7 20.7 0 0 0 1.53 3.18 8.8 8.8 0 0 0 1.14 1.44 21.26 21.26 0 0 0 1.29 1.35 5.16 5.16 0 0 0 2.61 1.19 5.06 5.06 0 0 0 .68 0 4.46 4.46 0 0 0 2.73-1 5.59 5.59 0 0 0 1.55-2.12 10.39 10.39 0 0 0 .81-3c.1-.8.14-1.63.17-2.43v-.92c.07-1.3.08-2.63.1-3.9v-6.48c0-1.2.07-2.42.12-3.64 0-1.52.1-3 .13-4.58v-6.57q0-1.35 0-2.7c0-1.26.1-2.52.17-3.77 0-1 .1-1.93.14-2.9.1-2.44.36-4.9.6-7a96.89 96.89 0 0 1 2.13-12.75c.57-2 1.2-3.87 1.73-5.5a28.79 28.79 0 0 1 1.35-3.32v1.17l-.32 5.12-.16 2.16a70.07 70.07 0 0 0 .15 9.56c0 .7.12 1.38.2 2.06l.2 2.14.25 4.28c.18 2.6.33 5.4.46 8.84 0 1.5.2 3 .36 4.45l.26 2.92.1 1.17c.1 1.3.26 2.6.4 3.9v.26a60.55 60.55 0 0 1 .19 2.29c0 .6.1 1.17.14 1.75.33 3.43.67 6.07 1.12 8.55.26 1.44.56 2.87.9 4.25l.15.6c.3 1.2.6 2.45 1 3.65a9.78 9.78 0 0 0 1.36 2.81 4.78 4.78 0 0 0 2 1.66 5.93 5.93 0 0 0 1.21.32 3 3 0 0 0 .57.05 5.5 5.5 0 0 0 1.51-.26 3.68 3.68 0 0 0 1.47-1.09l.1-.1a4.47 4.47 0 0 0 .54-.84l.13-.24a7.49 7.49 0 0 0 .38-.81 12.45 12.45 0 0 0 .51-4.94 67.68 67.68 0 0 0-1.16-8.64c-.23-1.28-.4-2.57-.55-3.77a29.55 29.55 0 0 1-.14-3.64 88.84 88.84 0 0 1 .66-8.88l.42-3.9.53-4.68c.15-1.2.37-2.43.58-3.6v-.2c.17-1 .3-1.93.4-2.87l.18-1.33c.36-2.64.93-5.3 1.5-7.87l.14-.66c.5-2.4 1-4.23 1.4-5.94a70.67 70.67 0 0 1 1.31-3.88c.53-1.44 1.16-2.8 1.76-4l1-2.1c.62-1.37 1.27-2.8 2-4.12a15.6 15.6 0 0 1 1.6-2.15l.32-.27c0 .48-.06.92-.1 1.36s-.1 1.12-.1 1.67a47.89 47.89 0 0 0 .17 5.33 21.67 21.67 0 0 0 .41 2.56l.26 1.35c.2 1.27.37 2.58.52 3.84l.08.62c.2 1.55.46 3.12.72 4.63s.5 3 .7 4.43l.23 1.88.37 3c.14 1 .36 2.25.57 3.34l.2 1.1c.57 3.1 1.25 6.7 2.1 10.17l.1.38.2.77v.2a2.58 2.58 0 0 0 .09.35l.08.27.16.55.33 1.23c.12.4.25.92.37 1.37l.15.58.6 2.44.35 1.48c.44 1.8 1 3.64 1.45 5.22l.4 1.42.94 3.1c.52 1.56 1.14 3.08 1.6 4.23l1.26 3.2c.64 1.66 1.3 3.4 2.06 5a43.93 43.93 0 0 0 2.16 4.2 13.06 13.06 0 0 0 2.06 2.46l.18.18a5 5 0 0 0 1.77 1.16c.43.15.87.27 1.3.4a3.2 3.2 0 0 0 .83.11 3.73 3.73 0 0 0 2.21-.73c1.5-1.13 1.68-2.8 1.66-4.44a15.48 15.48 0 0 0-.84-5.15l-.1-.3c-.12-.4-.22-.78-.33-1.16l-.33-1.16-1.18-4.07c-.3-1.38-.5-2.8-.7-4.17s-.3-2.43-.45-3.64l-.1-1c-.18-1.53-.34-2.92-.38-4.35 0-.9-.1-1.77-.15-2.65 0-.52-.07-1-.1-1.56-.2-3.9-.25-7.85-.28-11.68l-.08-5.72v-1.76c0-1.43-.07-2.85-.07-4.28v-2.88c0-.96-.06-2.13 0-3.2v-4.5c.07-2.2.2-4.34.32-6.73.1-1.63.33-3.27.55-4.86l.1-.74c.07-.45.12-.9.18-1.36.15-1.15.3-2.34.54-3.5.3-1.38.6-2.77 1-4.1a29.55 29.55 0 0 1 2.19-5.24l.52-.68c.16-.2.33-.42.48-.64a15.77 15.77 0 0 1 1.6-1.94l-.16.13c.63-.6 1.2-1.2 1.72-1.8l.46-.53c.38-.43.75-.86 1.15-1.28 1.2-1.12 2.48-2.2 3.68-3.2l1-.83 1.33-1.1a12.77 12.77 0 0 1 1.39-1l.77-.55c.54-.4 1.07-.82 1.6-1.24l1-.74c.85-.66 1.76-1.28 2.54-1.8l4.37-2.1 2.7-1.3c2-1 4-1.8 6-2.6l2.8-1.15c2.16-.9 4.4-1.74 6.56-2.53l1.85-.7 6.56-2.34 2-.7q4.47-1.58 9-3.1l8.94-2.94 4.34-1.48q2.4-.84 4.8-1.64h.12l3.93-1.26 1.78-.5 2.34-.67 2-.62 2.4-.73 2.3-.75 2-.64c1.5-.5 3-.9 4.54-1.3s2.93-.78 4.37-1.24c5.38-1.7 10.9-3.7 16.87-6.1l3.93-1.55 3-1.16 6.48-2.65c2.32-.97 4-1.7 5.62-2.47s3.34-1.6 5.53-2.75l.15-.08.33-.17.15-.08h-.08c1.63-.87 3.2-1.88 4.7-2.84l.6-.4c1.63-1.05 3.54-2.3 5.33-3.72a37 37 0 0 0 3.13-2.82l.5-.5a48.67 48.67 0 0 0 1.89-1.91l1-1.08c.42-.42.84-.84 1.23-1.28l.8-.9.87-1a20 20 0 0 0 2.82-4.37l.3-.57a20.25 20.25 0 0 0 2.43-6.88 22.11 22.11 0 0 0 .1-5.09 26.33 26.33 0 0 0-1-4.75l-.17-.6a27.46 27.46 0 0 0-1.2-3.55l-.34-.7a15.78 15.78 0 0 1-.5-1.1c-.2-.54-.38-1.1-.54-1.64l-.16-.52a18.61 18.61 0 0 0-.72-2c-.25-.58-.55-1.14-.84-1.7s-.53-1.13-.77-1.68-.36-.85-.56-1.26a21.45 21.45 0 0 0-1.86-3.11 19.93 19.93 0 0 0-2.3-2.81l-1-1-1.52-1.55c-1.46-2-3-4-5.22-6.46-1.62-1.87-3.35-3.7-5-5.45l-2.18-2.3-1.13-1.22-2.2-2.32-3.5-3.5-.43-.43c-4.75-4.74-9.76-9.4-14.9-13.87-6-5.22-11.06-9.34-15.9-13q-2.2-1.65-4.4-3.32l-.28-.2-.52-.4q-1.85-1.42-3.73-2.8l-1.86-1.32-2.1-1.5c-3-2.13-5.83-4.28-8.25-6.1-4.56-3.43-9.47-6.53-14.2-9.53l-2.25-1.42q-2.43-1.53-4.9-3l-3.63-2.24a326.78 326.78 0 0 0-8-4.85l-1.68-1-2.55-1.5-.62-.38a94.85 94.85 0 0 0-3.49-2.1c-1.76-1-3.6-1.93-5.4-2.82l-3.07-1.54-1.6-.84-3.87-2c-1.88-.9-3.8-1.8-5.7-2.6l-4.4-1.9-8.46-3.6.23.1-1.88-.8-5-2-3.78-1.6q-2.36-1-4.73-2a96.07 96.07 0 0 0-5.33-2c-1.67-.57-3.22-1-4.83-1.52l-1.26-.38a159.08 159.08 0 0 0-18.18-4.78 92.22 92.22 0 0 0-11-1.41c-1.15-.08-2.33-.1-3.54-.1z"/><path d="M736.2 976.07l-8.44.07h-7.65l-12.17.3-2.46.14-6.1.4-4.8.44-3.06.3-8.66 1-3.1.27-2.84.26c-1.3.14-2.6.4-3.87.65l-2.72.5h.5l-5 .84-2.8.68-.6.16-7.5 1.73-4.15 1.1-2.47.8-1.58.53-2.5.76-1.62.47-2.52.84-1.28.43-5.1 1.88-2.07.56c-6.5 1.9-12.88 4.47-19 7l-.93.38c-6 2.43-12.47 5.36-19.64 9-2.66 1.33-5.24 2.9-7.74 4.4l-10.2 6.2c-1 .6-1.9 1.2-2.83 1.8l-5.7 3.5a403.16 403.16 0 0 1-8.94 5 80.4 80.4 0 0 0-7.64 4.76c-2.37 1.67-5 3.4-8.12 5.44l-1.5.93-2.12 1.35c-1.34.88-2.7 1.86-4.32 3.1l-3.72 3c-1 .85-2 1.7-3.08 2.5-1.5 1.08-3.06 2.12-4.56 3.13l-.7.46a143.04 143.04 0 0 0-5.95 4.34l.22-.15-1.08.8-2.57 2c-5.23 3.93-10.72 7.73-16.8 11.6l-1.92 1.2c-2.14 1.35-4.35 2.75-6.45 4.2l-2.93 2.1c-1.7 1.23-3.46 2.5-5.26 3.66l-1.72 1.08c-1.56 1-3.17 2-4.67 3.1l-7.1 5.38-3 2.26-1.3 1c-2.23 1.68-4.53 3.4-6.7 5.23-1 .8-2 1.64-2.92 2.47l-4.63 3.88-2.7 2-4.94 3.73-3 2.44-4.26 3.43-5.56 4.22c-1 .72-2 1.5-2.9 2.3l-2.78 2.4c-1.3 1.16-2.6 2.4-3.82 3.6l-1.58 1.52-.08.07c-1.68 1.6-3.43 3.28-5 5s-3 3.63-4.37 5.46l-.37.5c-.84 1.08-1.75 2.22-2.7 3.28l-1.8 2-1.34 1.44-2.63 3-.62.73-1.4 1.6-1.62 1.88a47.09 47.09 0 0 0-3.11 4l-1.06 1.56-1.77 2.58c-1.67 2.36-3.4 4.82-5 7.3a48.37 48.37 0 0 0-4.47 9.37 84 84 0 0 0-2.48 8.79l-.07.27c-.62 2.54-1.07 5.16-1.52 7.7l-.3 1.82a98.93 98.93 0 0 0-1.3 10.24c-.1 1.38-.18 2.82-.23 4.27v4c0 1.3.1 2.6.2 3.9s.3 2.54.52 3.78c.08.4.14.78.2 1.18l.2 1.72.25 2.07c.22 1.7.53 3.42.94 5.26.23 1.07.42 2.17.6 3.24l.16 1a15.12 15.12 0 0 0 .37 1.51l.06.23c.12.46.23.9.33 1.37l.13.57c.27 1.16.63 2.3 1 3.42l.16.5a36.62 36.62 0 0 1 .88 3.83c.17.92.42 1.84.67 2.73s.53 1.94.7 2.94.2 1.76.4 2.62l.15.7a35.75 35.75 0 0 1 .35 1.8 9.49 9.49 0 0 0 .39 1.62c0 .4.06.77.08 1.16v4a44.69 44.69 0 0 0 .81 6.25l.44 2.57a105.17 105.17 0 0 0 .53 3.64c.08.53.18 1 .28 1.57l.3 1.7.36 2.63-.06-.6a120.55 120.55 0 0 0 .68 4.64l.14.83.18 1.1.1.67v.37a2 2 0 0 1 0 .26v.32c.22 1.75.44 3.4.8 5 .1.48.22.95.33 1.43.25 1 .5 2 .67 3.1l.28 1.86.5 3.1 1 6.05.55 3.44c.55 3.3 1.07 6.3 1.82 9.3l.2.78 2 8.43.12.63c.26 1.28.52 2.62.86 3.9.26 1 .6 1.9.93 2.83.2.54.4 1.07.57 1.6.28.84.52 1.7.75 2.54l.58 2a41.13 41.13 0 0 0 1.8 4.51l.25.56c.1.24.2.48.32.73.56 1.4 1.06 2.83 1.55 4.23l1.35 3.72c.83 2.12 1.55 4.32 2.26 6.44l.43 1.27.25.78c.37 1.08.74 2.2 1.06 3.3l.42 1.5.75 2.64a140.22 140.22 0 0 1 1.18 4.21c.37 1.4.85 3.14 1.34 4.7l1.27 4.1 1.4 4.54 1.15 3.86 1.55 5.13c.9 2.77 1.85 5.65 2.6 8.53l.16.6 2.1 8.45.43 1.84c0 1.4.06 2.82.1 4.23 0 .66.05 1.33.07 2s0 1.5-.06 2.24c0 .4 0 .83-.05 1.24 0 1.07-.07 1.92-.14 2.7a21.38 21.38 0 0 1-1.06 4.08 19.77 19.77 0 0 1-1.82 3.23c-.17.2-.35.42-.5.64l-1 1.27-1.5 1.9c-.74 1-1.43 1.77-2.1 2.5l-.16.12-.1.07-.28.2.15-.1c-.43.3-.85.65-1.27 1l-.46.36a73.2 73.2 0 0 1-1.3.9l-.9.62-.25.18c-.77.55-1.57 1.1-2.4 1.6a58 58 0 0 1-6.31 3.13l-2.44 1-1.43.6-4.27 1.66-.13.06h.07l-1.45.56-1.58.62-.32.13a42.95 42.95 0 0 1-1.78.67c-.94.33-1.87.74-2.78 1.13l-.36.16-2.34.93c-1.56.6-3.18 1.23-4.73 2-.77.35-1.5.73-2.25 1.1l-.84.43a25.16 25.16 0 0 1-1.56.74c-.56.24-1.06.48-1.58.75l-3.77 1.87-1.1.5c-1 .46-2 .9-2.92 1.4l-7.93 4-6.8 3.55a33.83 33.83 0 0 0-1.57.9c-.5.3-1.1.65-1.66.95l-1.64.84-2.13 1.1c-2.48 1.34-5 2.82-7.42 4.4l-3.3 2.2c-.86.6-1.68 1.28-2.47 1.93l-1.23 1a51.24 51.24 0 0 0-5.07 4.58c-.7.72-1.4 1.47-2 2.23a33.93 33.93 0 0 1-1 1.09l-.92 1a42.79 42.79 0 0 0-1.36 1.66c-.32.4-.64.8-1 1.18s-.6.68-.93 1a14.25 14.25 0 0 0-.9 1l-.54.67c-.36.44-.73.9-1.13 1.32l-.44.46a19.76 19.76 0 0 0-1.71 1.94c-.3.38-.56.8-.82 1.2s-.6.9-.93 1.34l-.52.68.54-.66a23 23 0 0 0-2 2.73c-.32.53-.62 1.07-.9 1.6a27.49 27.49 0 0 1-.77 1.38 44.62 44.62 0 0 0-2.73 5.85 40 40 0 0 0-1.39 4.31l-.62 2.1a21.24 21.24 0 0 0-.69 3l-.53 3.77v-.1c-.18 1.2-.32 2.5-.44 4.1a21.71 21.71 0 0 0 0 2.55v1c0 2.4.07 4.4.3 6.48a3.75 3.75 0 0 0 .09.82l.17 1.2c0 .3.08.6.12.9a1.59 1.59 0 0 0 0 .17v.25a4.24 4.24 0 0 0 .12.86 69.57 69.57 0 0 0 .46 2.9c.08.42.2.84.3 1.26s.16.57.22.85l.2 1 .24 1.16.57 2.28a74.23 74.23 0 0 0 2.54 8.66c.5 1.38.94 2.8 1.37 4.17l1.17 3.6c.2.54.36 1.08.54 1.63l.76 2.24.66 1.75c.3.73.57 1.47.83 2.22l.64 1.93.47 1.47c.16.47.2.7.3 1.08s.16.64.27 1c.2.67.44 1.33.68 2l.5 1.34c.32.83.63 1.65.9 2.48.35 1 .76 2.14 1.3 3.46l.17.43.36.87.07.13a95.05 95.05 0 0 1 1.2 3.2l.53 1.45c.24.64.46 1.28.68 1.92a64.64 64.64 0 0 0 .87 2.38v.05a3.65 3.65 0 0 0 .14.35v-.08l.06.16c0 .1.08.22.13.33l-.08-.26c.17.47.38.93.58 1.38l.48 1.06-.3-.77a23.16 23.16 0 0 0 2 3.89 18.5 18.5 0 0 1 1 1.63 10.9 10.9 0 0 0 1 1.56q.26.36.48.75l.94 1.72c1.44 2.7 3 5.54 4.67 8.28l2.6 4.06a64.44 64.44 0 0 0 1.37 2l1.22 1.78.82 1.24c.6.9 1.2 1.84 1.85 2.73.95 1.27 2 2.57 3.24 4.1.44.53.9 1 1.35 1.57s.94 1.07 1.4 1.62l1 1.2c.54.68 1.1 1.35 1.66 2a81.17 81.17 0 0 0 1.8 2l1.23 1.35c1.1 1.23 2 2.25 3 3.23a82.11 82.11 0 0 0 7.07 6.2c1.14.88 2.32 1.73 3.47 2.55l3.23 2.37-.65-.53c1 .84 2.12 1.6 3.23 2.4a25.91 25.91 0 0 0 2.67 1.61l.88.5 3.35 1.9c1.3.72 2.67 1.4 3.88 2a57.75 57.75 0 0 0 3.87 1.74c.82.35 1.68.63 2.5.9l1.26.42a56.42 56.42 0 0 1 1.82.67l2 .74a59.98 59.98 0 0 1 3.44 1.29l.2.1a84.08 84.08 0 0 0 9.07 3.11c.5.14 1 .3 1.5.46a22.54 22.54 0 0 0 3 .81l1.5.27 3.4.57h-.14.2c2.24.28 4.42.48 6.58.58.43 0 .87.06 1.3.1s1.17.1 1.75.12h.15a17.63 17.63 0 0 0 2.89-.3l.86-.08a15.81 15.81 0 0 0 2.73-.42 11.91 11.91 0 0 0 3.64-1.82 19.48 19.48 0 0 0 2.84-2.41l.17-.18a13.88 13.88 0 0 0 .83-.89 7.66 7.66 0 0 0 1.51-2.78 9.1 9.1 0 0 0 .3-3.13 14.22 14.22 0 0 0 .31-3.23 23.08 23.08 0 0 0-.43-3.38c0-.26-.1-.5-.18-.77a16.28 16.28 0 0 0-.43-2.13 23.79 23.79 0 0 0-.81-2.38l-.07-.2a20.07 20.07 0 0 1-.87-2.89l-.1-.4c0-.27-.1-.54-.18-.8a14.11 14.11 0 0 0-.68-1.75v-.04.18a27.16 27.16 0 0 0-1.43-3c-.27-.5-.57-1-.86-1.5l-.7-1.18a40.27 40.27 0 0 0-3.5-5l-.1-.1-.08-.12-.17-.2a20.63 20.63 0 0 1-.89-1.4c-.28-.47-.43-.72-.67-1.07a32.41 32.41 0 0 0-2.14-2.74c-1.25-1.46-2.6-2.86-3.92-4.22l-.37-.38a27.5 27.5 0 0 0-1.09-1.07c-.37-.35-.83-.8-1.23-1.22l-1.05-1.15q-.57-.65-1.17-1.3a79.33 79.33 0 0 0-4.24-4.15c-.76-.7-1.54-1.36-2.32-2s-1.6-1.38-2.36-2.08l-.94-.87-1.3-1.2-.9-.77c-.5-.43-1-.85-1.44-1.3l-1-.87a23.4 23.4 0 0 1-1.37-1.27c-.72-.75-1.4-1.48-2.06-2.23-.3-.36-.64-.7-1-1s-.8-.85-1.18-1.3-1.06-1.25-1.65-1.87c-.17-.2-.34-.37-.5-.57-.32-.44-.62-.88-.93-1.33l-.4-.56a34.63 34.63 0 0 0-2.58-3.37c-.47-.54-.92-1.1-1.37-1.65l-1.36-1.64c-.47-.54-1-1-1.56-1.65a17.11 17.11 0 0 1-1.33-1.55l-.33-.44-1.15-1.54a18.5 18.5 0 0 1-1.84-3.17l-.05-.18v-.2a38 38 0 0 1-.92-4.19l-.48-4.57v-1.02c0-.37 0-.75.07-1.1q.08-1 .18-2c.28-1.78.55-3.27.93-4.76.14-.57.26-1.15.38-1.74l.06-.32.06-.18c.4-1.2.82-2.4 1.35-3.77a17.86 17.86 0 0 0 .73-1.5c.08-.18.15-.35.22-.53a13.39 13.39 0 0 0 .5-1.3l.34-1a12 12 0 0 1 .75-1.19l.34-.5q.25-.4.48-.8c.2-.35.4-.7.64-1a8.83 8.83 0 0 0 .58-.8l.14-.22.14-.23.17-.2.4-.5c.53-.64 1-1.2 1.36-1.76l.27-.22.27-.23c.78-.66 1.56-1.3 2.35-1.92l1.42-1.06c.55-.4 1.1-.8 1.63-1.23l-.2.14.28-.2.3-.22.36-.28 1.65-1.2 1.87-1.4c.68-.5 1.37-1 2.1-1.48s1.44-.87 2.18-1.3l.23-.13a56.64 56.64 0 0 1 5.37-2.75l3.85-1.63a62.7 62.7 0 0 1 7.28-2.21l1.15-.3c1.63-.4 3.3-.85 5-1.2l.48.13.3.1a2.4 2.4 0 0 1 .28.27 4.81 4.81 0 0 1 .18.65v.4a12.4 12.4 0 0 1-.5 1.86l-.1.23-.5 1.05a34.86 34.86 0 0 1-2.43 4.06l-.66 1-1 1.55a29 29 0 0 0-1.83 3.16 54.37 54.37 0 0 0-3.39 7.47 7.54 7.54 0 0 0 1.57 7.57 10.48 10.48 0 0 0 1.68 1.37l.25.17a9.06 9.06 0 0 0 3.95 1.68 15.92 15.92 0 0 0 2.09.17h.3a13.89 13.89 0 0 0 2.56-.34 21.21 21.21 0 0 0 4.39-1.62l.26-.12a20.2 20.2 0 0 0 3.91-2.58l.4-.32c.72-.54 1.4-1.17 2-1.77l1.24-1.1c.42-.36 1.1-1 1.65-1.48l1.76-1.57c1-.9 2.13-1.77 3.2-2.64 1.4-1.14 2.88-2.3 4.25-3.55l1.28-1.13 2.24-2c1.1-1 2.23-2.15 3.5-3.5l1.4-1.5 2-2.12c1.24-1.28 2.36-2.5 3.42-3.74 1.6-1.84 3.3-3.62 5-5.36l1.55-1.62c.83-.9 1.63-1.83 2.4-2.75l.7-.82 3.35-3.88c1.12-1.3 2.44-3 3.58-4.5l6.1-5.54c1.87-1.64 3.83-3.55 5.66-5.33l1.2-1.17a72.6 72.6 0 0 0 6.36-7.13c2.13-2.7 4.07-5.1 6.2-7.35a56.33 56.33 0 0 0 5.7-7.35 237.37 237.37 0 0 1 4-5.82c1.1-1.56 2.26-3.17 3.3-4.9a27.11 27.11 0 0 0 2.94-6.34 53.24 53.24 0 0 0 1.66-7.73c0-.3.07-.54.1-.8l-.05.22a60.32 60.32 0 0 0 .35-7.71 57.45 57.45 0 0 0-.88-9.1c-.6-3.4-1.14-6-1.8-8.36s-1.4-4.7-2.13-7l-.54-1.7-.9-2.78-.36-1.06-.3-.9c-.25-.7-.5-1.45-.7-2.2-.15-.55-.27-1.12-.38-1.7l-.23-1.08c-.2-.87-.4-1.8-.57-2.74l-.15-1.2-.37-2.77-.3-1.73c-.1-.57-.2-1.28-.3-1.92-.14-1-.25-2.08-.36-3.1l-.38-3.4c-.26-2-.43-3.94-.6-5.87l-.1-1.35-.1-1.14c-.18-2.06-.36-4.2-.35-6.3a67.85 67.85 0 0 1 .45-7.51c.6-4.43 1.3-8.27 2.1-11.74a53.56 53.56 0 0 1 1.74-5.86c.14-.4.27-.82.4-1.23l.24-.7.86-1.57.2-.38c1.44-2.57 2.92-5.22 4.25-7.9s2.57-5.48 3.75-8.2l.2-.43.3-.7c1.26-2.86 2.56-5.82 3.57-8.82a68.35 68.35 0 0 0 1.38-4.52c.38-1.43.7-2.87 1.1-4.73.28-1.38.62-2.74.95-4.1.44-1.8.9-3.65 1.24-5.5.72-3.83 1.28-7 1.7-10.34v.17c.37-2.77.65-5.7.92-9.54v-.7l.53-8.33c.13-2.78.12-5.8.1-8.54q0-1.6 0-3.18v-5.17a83.28 83.28 0 0 0-.91-9.51l-.15-1c-.37-2.64-.75-5.36-1.3-8-.36-1.78-.7-3.2-1.06-4.5s-.76-2.36-1.2-3.5l-.34-.92-.54-1.48-1-2.64-1.93.38a6.25 6.25 0 0 1-4.49-.52 6 6 0 0 1-2.37-8.15 5.84 5.84 0 0 1 3.66-2.89h.1c0-.06 0-.12-.07-.17a13.05 13.05 0 0 1-.42-1l-.82-1.83c-.3-.6-.7-1.35-1.07-2l-.43-.77c-.15-.28-.3-.56-.44-.85 1.43.26 2.87.5 4.3.7l4.54.57 2 .23 4.82.7c2 .28 4.1.47 6 .64l2 .16a55 55 0 0 1 6.55-.48c2.4 0 4.8 0 7.22.12a105.36 105.36 0 0 0 12.69-.1c4-.34 8.1-.83 12.14-1.33l5-.7 11.16-1.58 10.23-1.23c3.4-.43 6.94-1.16 10.4-1.77 3.94-.68 7.92-1.12 11.9-1.63l11.45-1.87c4.55-.66 9.07-1.55 13.6-2.24s9-1.65 13.5-2.34c2.3-.35 4.6-.68 6.86-1.12s4.25-.84 6.4-1.15c2.3-.32 4.58-.75 6.87-1.16s4.43-.75 6.66-1.06c1.78-.27 3.54-.66 5.3-1.07l5.9-1.3c1.97-.42 4-.88 5.9-1.42 1.54-.4 3.07-.8 4.63-1.07 3.37-.6 6.6-1.6 9.92-2.46l9.48-2.5 5.74-1.47c1.9-.47 3.9-1.14 5.83-1.74l10.85-3.4 5.86-1.9c1.7-.58 3.38-1.25 5.1-1.77a100.86 100.86 0 0 0 9.72-3.42l2.18-.94-.84.37c4.48-1.9 9.06-3.55 13.57-5.4l2-.92 6-3c1.84-.9 3.72-1.8 5.48-2.84l9.46-5.67c3.15-1.9 6.46-4.24 9.77-6.26 1.7-1 3.4-2.12 5-3.28s3.3-2.2 4.87-3.4l2.24-1.8-.14.12 1.1-.88c2.4-2 4.65-4.06 7.08-6l-1.27 1a54.4 54.4 0 0 0 5.31-5c1.52-1.6 3.2-3 4.7-4.68l4.84-5.27c1.24-1.4 2.42-2.88 3.56-4.37s1.94-3 2.86-4.6l2.83-4.8a67.87 67.87 0 0 0 3.85-8c.64-1.73 1.2-3.47 1.9-5.17l.74-2c.25-.67.23-1.26.32-1.9.3-1.87.44-3.78.58-5.63l.34-3.85c.2-1.44.44-2.87.67-4.3a38.08 38.08 0 0 0 .64-5.55 39.3 39.3 0 0 0-.21-4.21l-.06-.66-.3-4.15v-.5c-.07-1-.16-1.92-.25-2.87 0-.6-.1-1.2-.16-1.8-.08-.86-.14-1.72-.2-2.58l-.12-1.72a27.55 27.55 0 0 0-.79-4.75c-.24-.93-.54-1.86-.84-2.75l-.57-1.82a95.38 95.38 0 0 1-1.41-5.26l-1.14-4.32a31.52 31.52 0 0 0-1.88-5c-.54-1.12-1.1-2.22-1.7-3.32l-.65-1.25-.94-1.83a54.61 54.61 0 0 0-3.73-6.6l-3.73-5.28-1.94-2.72c-.86-1.2-2-2.8-3.3-4.3l-2.94-3.3-.24-.26c-.86-1-1.77-1.9-2.65-2.8l-.76-.78c-1.27-1.33-2.42-2.45-3.5-3.44a80.78 80.78 0 0 0-6.72-5.35l-1.57-1.18c-2.52-1.9-5.2-3.9-8.08-5.73-2.1-1.35-4.33-2.53-6.5-3.67l-2.15-1.13c-3.34-1.8-6-3.1-8.5-4.24-3-1.33-6.08-2.4-9.1-3.45l-.63-.22-.85-.3c-1.23-.43-2.5-.87-3.8-1.26-1.46-.44-3-.8-4.42-1.16h-.14l-3.47-.83-6.53-1.6-5-1.2c-1.22-.27-2.47-.47-3.68-.68l-1.4-.23c-3.82-.67-7.66-1.14-10.57-1.47-4-.46-7.08-.74-10-.9-1.88-.12-3.8-.16-5.66-.2-1.42 0-2.84-.06-4.27-.1a149.05 149.05 0 0 0-6.53-.14q-1.63 0-3.27 0zm-216.06 85.55l-.87.63.86-.63zm-88.24 610.4l-.03-.1.03.1z"/><path d="M516.5 1229.5a3.28 3.28 0 0 0-.62 4.55l1.43 2.14 2.4 4.2 2 3.12 1 1.82c.36.6.8 1.46 1.14 2.24a31.31 31.31 0 0 1 1.09 3.13l1 3.34 2.15 9.6.87 5.4a32.91 32.91 0 0 1 .54 5v.22a3.56 3.56 0 0 0 .62 2.45 3.25 3.25 0 0 0 4.55.63 3.12 3.12 0 0 0 1.26-2.11 29.64 29.64 0 0 0-.27-5.57l-.75-4.66c-.5-3.18-1.17-6.3-1.94-9.43a85.55 85.55 0 0 0-2.73-9.53 17.71 17.71 0 0 0-.75-1.81l-.76-1.4-1.86-3.38-2.56-4.1-1.24-2.25a32.71 32.71 0 0 0-1.93-3 3.14 3.14 0 0 0-2.59-1.28 3.3 3.3 0 0 0-2 .65z"/><path d="M516.96 1237.66a3.26 3.26 0 0 0-1.75 1.71 3.14 3.14 0 0 0 0 2.53 46.34 46.34 0 0 1 3 7l1.55 5.23a5.13 5.13 0 0 0 1.82 2.85 3.54 3.54 0 0 0 2.4.67 3.3 3.3 0 0 0 1.55-.62 3.38 3.38 0 0 0 .54-.17 3.26 3.26 0 0 0 1.75-1.71 3.14 3.14 0 0 0 0-2.53l-2.4-5.72-1.2-3.07-1.2-2.83a3.18 3.18 0 0 0-1.92-1.83 3.31 3.31 0 0 0-1.59-1.52 3.27 3.27 0 0 0-2.53 0zm80.84-90.43a18.66 18.66 0 0 0-7.35 3.3 34.55 34.55 0 0 0-5.3 4.74 37.57 37.57 0 0 0-3.44 4.31q-1.6 2.3-3.16 4.62l-2.87 4.67a66.8 66.8 0 0 0-6.27 13 53.54 53.54 0 0 0-1.78 6.83 46.05 46.05 0 0 0-.65 7.69l.16 5.72.43 4.82.57 5.4c0 .27-.06.53-.1.8-.276 1.776.94 3.44 2.715 3.715s3.44-.94 3.715-2.715a22.49 22.49 0 0 0-.22-5.85l-.42-4.07a78.08 78.08 0 0 1-.4-8 49.27 49.27 0 0 1 .44-5.43 41.45 41.45 0 0 1 1.14-5.17 49 49 0 0 1 2.09-5.6l1.37-2.9 2.2-4.07-.1.15 3.55-5.73q1.15-1.72 2.34-3.42a43.55 43.55 0 0 1 4.59-5.63 28.57 28.57 0 0 1 4.84-3.72 14.52 14.52 0 0 1 2.45-1 10.54 10.54 0 0 1 1.69-.2 25.17 25.17 0 0 1 3.84.62 3.25 3.25 0 0 0 3.7-2.72 3.29 3.29 0 0 0-.62-2.45 3.38 3.38 0 0 0-2.11-1.25 31.06 31.06 0 0 0-3.17-.6 14 14 0 0 0-1.59-.09 14.53 14.53 0 0 0-2.29.18z"/></g><path d="M230.72 354.18c0 12.84 10.41 23.25 23.25 23.25s23.25-10.41 23.25-23.25-10.41-23.25-23.25-23.25c-12.79.12-23.13 10.46-23.25 23.25z" fill="#fff"/><path d="M232.5 351.38c0 9.25 7.5 16.75 16.75 16.75s16.75-7.5 16.75-16.75-7.5-16.75-16.75-16.75c-9.215.087-16.663 7.535-16.75 16.75z"/><g fill="#ff1300"><path d="M691.3 46.9a74.34 74.34 0 0 0-22.63-5.4 64.52 64.52 0 0 0-10.31-.1 86.79 86.79 0 0 0-12.33 1.67 80.77 80.77 0 0 0-14.75 4.9 64.72 64.72 0 0 0-10.68 5.85 73.27 73.27 0 0 0-20.11 19.19l-1.27 2.87a11.7 11.7 0 0 0 14 14.6l2.8-1.07a11.63 11.63 0 0 0 4.47-4.23l.76-1a66.82 66.82 0 0 1 10.24-9.65 53.61 53.61 0 0 1 39.1-9.42 66.88 66.88 0 0 1 13.5 3.92 67.72 67.72 0 0 1 12.17 7.45 53 53 0 0 1 16.1 22.31 66.71 66.71 0 0 1 3.2 13.29 66.65 66.65 0 0 1-.27 13.69 66.37 66.37 0 0 1-3.9 13.47 67.31 67.31 0 0 1-7.47 12.22 53.11 53.11 0 0 1-22.31 16.1 53.56 53.56 0 0 1-27 2.93 68.69 68.69 0 0 1-6.61-1.52l-1.62-.48h-.07l-3-1a12.43 12.43 0 0 0-1.88-.73l-.35-.14-.43-.2-.23-.1-.46-.23-.2-.1a68.59 68.59 0 0 1-2.68-1.42l-.54-.3-.1-.05-.6-.35a11.69 11.69 0 0 0-17.969 9.632 11.69 11.69 0 0 0 5.769 10.308l.25.16.2.12.18.1.22.12.2.12.12.06h.08l2.38 1.26.74.37.2.1.25.12.16.08.4.2 3.22 1.45a12.07 12.07 0 0 0 2.55 1.08h.07q2.38 1 4.83 1.74l.17.06 1.1.33h.42l.32.08a91.48 91.48 0 0 0 11.17 2.19 65.55 65.55 0 0 0 8.86.66 90.63 90.63 0 0 0 10.91-.76 64.69 64.69 0 0 0 8-1.46 85.36 85.36 0 0 0 10.56-3.5 67.5 67.5 0 0 0 8.65-4.07 83.39 83.39 0 0 0 10.79-7.35 64.28 64.28 0 0 0 7.9-7.4 84.62 84.62 0 0 0 8.18-10.49 80.5 80.5 0 0 0 6.38-12.34 75.13 75.13 0 0 0 5.59-22.82 64.47 64.47 0 0 0 .1-10.94 74.19 74.19 0 0 0-6.2-25.94 64.88 64.88 0 0 0-5-9.59 74 74 0 0 0-14.7-17.39 87.64 87.64 0 0 0-10.23-7.66l-.4-.25a89 89 0 0 0-11.19-5.56z"/><path d="M615.86 165.57q-14.27 23.34-28.54 46.66l-.15.25a11.69 11.69 0 1 0 19.94 12.2q14-22.87 28-45.77l.7-1.13a11.72 11.72 0 0 0-3.895-16.105 11.72 11.72 0 0 0-16.105 3.895zm-40.1 70a14.28 14.28 0 0 0-4-.59 17.57 17.57 0 0 0-4.06.51 18.12 18.12 0 0 0-4.19 1.68 19.38 19.38 0 0 0-3.61 2.67 12.39 12.39 0 0 0-1.39 1.33 19.25 19.25 0 0 0-4.3 8.37 17 17 0 0 0 .3 8.63 16.4 16.4 0 0 0 4.51 7.21 20.13 20.13 0 0 0 14.59 4.79 17.69 17.69 0 0 0 4.32-.79 15.07 15.07 0 0 0 6.91-4.52 14.82 14.82 0 0 0 2.4-3.69 15.56 15.56 0 0 0 1.25-3.9 25.4 25.4 0 0 0 .26-3.15 21.91 21.91 0 0 0-.47-3.12 11.46 11.46 0 0 0-.72-2.19 9.12 9.12 0 0 0-1.39-4.06l-1.1-1.7a22.62 22.62 0 0 0-3.58-4.38 16.27 16.27 0 0 0-2-1.5 19.25 19.25 0 0 0-3.72-1.65zM323.73 3.73a72.67 72.67 0 0 0-20.33 10.25 63.26 63.26 0 0 0-7.78 6.45 83.24 83.24 0 0 0-8.17 9 79.44 79.44 0 0 0-7.93 13 63.26 63.26 0 0 0-4.29 11.12 72.19 72.19 0 0 0-2.9 27l.87 2.94a11.45 11.45 0 0 0 19.68 2.09l1.42-2.56a11.39 11.39 0 0 0 .66-5.95l-.06-1.23a64.37 64.37 0 0 1 1.6-13.66 65.42 65.42 0 0 1 4.93-12.49 66.23 66.23 0 0 1 7.91-10.78 52 52 0 0 1 23-14.07 66.48 66.48 0 0 1 13.81-2.12 52 52 0 0 1 26.14 6.51 52.52 52.52 0 0 1 19.21 18.36 65.37 65.37 0 0 1 5.59 12.53 65.55 65.55 0 0 1 2.13 13.86 64.72 64.72 0 0 1-1.57 13.65 64.55 64.55 0 0 1-4.94 12.49 52.26 52.26 0 0 1-18.35 19.25q-2.86 1.67-5.9 3.05l-1.52.66h-.06q-1.4.58-2.85 1.1a12.15 12.15 0 0 0-1.87.64l-.35.12-.45.12-.56.14h-.3l-3.13.68-.6.1h-.1l-.67.1a11.51 11.51 0 0 0-7.226 18.578 11.51 11.51 0 0 0 10.726 4.172l.3-.05h.42l.24-.05h.52a53.59 53.59 0 0 0 2.58-.55l1-.25.26-.07h.23l.43-.12 3.32-.94a12.14 12.14 0 0 0 2.59-.81h.07q2.4-.8 4.72-1.75l.15-.07 1.05-.45.12-.05.15-.07.12-.05.3-.14a91 91 0 0 0 9.73-5.43 61.48 61.48 0 0 0 7-5.1 87.21 87.21 0 0 0 7.81-7.74 63.72 63.72 0 0 0 5.1-6.17 84.9 84.9 0 0 0 5.69-9.29 67.31 67.31 0 0 0 3.9-8.51 82.42 82.42 0 0 0 3.42-12.32 63.06 63.06 0 0 0 1.24-10.53 84.39 84.39 0 0 0-.52-13 79.19 79.19 0 0 0-3-13.25 73.83 73.83 0 0 0-10.24-20.61 63.46 63.46 0 0 0-6.84-8.25 72.63 72.63 0 0 0-21-15.48 64.38 64.38 0 0 0-9.75-4 73.13 73.13 0 0 0-22-3.72 84.25 84.25 0 0 0-12.5.75l-.46.06a86.89 86.89 0 0 0-11.88 2.92z"/><path d="M342.3 140.18l8.13 52.93v.3c1.063 6.15 6.855 10.314 13.023 9.366a11.45 11.45 0 0 0 9.607-12.846l-8-51.93c-.06-.43-.13-.86-.2-1.28a11.44 11.44 0 1 0-22.56 3.47zm14.2 77.67a13.34 13.34 0 0 0-3.37 2.09 17.23 17.23 0 0 0-2.73 2.95 18.68 18.68 0 0 0-2.12 3.9 19.61 19.61 0 0 0-1 4.28 11.47 11.47 0 0 0-.17 1.85 18.81 18.81 0 0 0 2.07 9 16.45 16.45 0 0 0 5.67 6.27 16 16 0 0 0 7.93 2.55 19.66 19.66 0 0 0 14-5.61 17.42 17.42 0 0 0 2.74-3.32 14.45 14.45 0 0 0 1.72-3.77 14.3 14.3 0 0 0 .59-4 14.45 14.45 0 0 0-.54-4.28 15.18 15.18 0 0 0-1.52-3.7 26.21 26.21 0 0 0-1.8-2.52 21.85 21.85 0 0 0-2.33-2 11.27 11.27 0 0 0-1.91-1.18 9 9 0 0 0-3.61-2.16l-1.9-.57a22 22 0 0 0-5.44-1 16.1 16.1 0 0 0-2.46.16 19 19 0 0 0-3.82 1.12zM25.2 91.67a72.82 72.82 0 0 0-14.58 17.56 64.85 64.85 0 0 0-4.56 9 84 84 0 0 0-3.89 11.56A79.43 79.43 0 0 0 .09 144.9a62.63 62.63 0 0 0 .51 11.93 71.71 71.71 0 0 0 8.16 26l2 2.36a11.48 11.48 0 0 0 18.92-5.95l.27-2.92a11.37 11.37 0 0 0-1.76-5.74l-.56-1.1a64.64 64.64 0 0 1-4-13.19 65.76 65.76 0 0 1-.47-13.45 66.32 66.32 0 0 1 2.95-13.07 52.08 52.08 0 0 1 15.51-22.14 65.76 65.76 0 0 1 11.78-7.44 52.1 52.1 0 0 1 26.62-4.48 52.42 52.42 0 0 1 25 9.14 64.67 64.67 0 0 1 10.15 9.27 66.48 66.48 0 0 1 7.51 11.88 52.05 52.05 0 0 1 4.48 26.62 52.49 52.49 0 0 1-9.15 25q-2 2.68-4.2 5.16l-1.13 1.2v.05a55.25 55.25 0 0 1-2.17 2.16 12.27 12.27 0 0 0-1.46 1.34l-.28.24-.36.3-.2.16-.26.2-.14.1-.2.14-2.4 1.74-.5.34-.1.06-.57.37a11.65 11.65 0 0 0-5.06 7.18 11.47 11.47 0 0 0 17.31 12.22l.25-.16.2-.12.17-.12.2-.14.2-.12.1-.08.07-.05 2.15-1.54.65-.5.16-.12.2-.17.13-.1.36-.28 2.68-2.2a11.79 11.79 0 0 0 2-1.77l.06-.05 3.63-3.5.12-.12.78-.84.3-.3.22-.24a94.11 94.11 0 0 0 6.77-8.88 62.87 62.87 0 0 0 4.42-7.51 88.48 88.48 0 0 0 4.08-9.93 64.57 64.57 0 0 0 2.32-7.75 85.7 85.7 0 0 0 1.5-10.8 65.29 65.29 0 0 0 .17-9.38 80.8 80.8 0 0 0-1.78-12.68 63.08 63.08 0 0 0-3.08-10.17 83.65 83.65 0 0 0-5.68-11.77 79.47 79.47 0 0 0-8.08-11 73.89 73.89 0 0 0-17.65-14.83 64.2 64.2 0 0 0-9.58-4.84 84.16 84.16 0 0 0-12.27-4 83.26 83.26 0 0 0-13.25-1.8 64.45 64.45 0 0 0-10.58.19 73.31 73.31 0 0 0-21.72 5.41A84.49 84.49 0 0 0 35.32 84l-.4.24a87.68 87.68 0 0 0-9.75 7.43z"/><path d="M96.85 209.58l28.8 45.6c3.383 5.357 10.468 6.958 15.825 3.575s6.958-10.468 3.575-15.825l-28.8-45.6c-3.383-5.357-10.468-6.958-15.825-3.575s-6.958 10.468-3.575 15.825zm44.17 65.7a13.66 13.66 0 0 0-2.26 3.27 17.5 17.5 0 0 0-1.32 3.8 18.41 18.41 0 0 0-.39 4.43 18.67 18.67 0 0 0 .79 4.33 11.21 11.21 0 0 0 .58 1.78 18.92 18.92 0 0 0 5.49 7.42 16.57 16.57 0 0 0 7.72 3.49 16.07 16.07 0 0 0 8.3-.83 19.74 19.74 0 0 0 10.63-10.78 17.6 17.6 0 0 0 1.19-4.15 14.88 14.88 0 0 0-1-8 14.69 14.69 0 0 0-2.21-3.71 14.91 14.91 0 0 0-2.88-2.79 24.67 24.67 0 0 0-2.66-1.6 20.55 20.55 0 0 0-3-.94 11 11 0 0 0-2.23-.32 8.9 8.9 0 0 0-4.18-.54l-2 .23a22 22 0 0 0-5.4 1.24 15 15 0 0 0-2.21 1.13 19 19 0 0 0-3.06 2.56z"/></g></svg>